<?xml version="1.0" encoding="utf-8"?>
<!-- Generator: Adobe Illustrator 22.1.0, SVG Export Plug-In . SVG Version: 6.00 Build 0)  -->
<svg version="1.1" id="Layer_1" xmlns="http://www.w3.org/2000/svg" xmlns:xlink="http://www.w3.org/1999/xlink" x="0px" y="0px"
	 viewBox="0 0 69 69" style="enable-background:new 0 0 69 69;" xml:space="preserve">
<style type="text/css">
	.st0{fill:#C3C5C8;}
	.st1{fill:#0051A3;}
</style>
<path class="st0" d="M16.7,4.5h11.1v2.2H16.7V4.5z"/>
<path class="st0" d="M65.7,45.6c1.8,0,3.3-1.5,3.3-3.3V25.2c0-2.2-1.6-4.1-3.8-4.4l-4-0.6v-1.9c1.4-1.2,2.2-3,2.2-5v-2.2
	c0-3.7-3-6.7-6.7-6.7s-6.7,3-6.7,6.7v2.2c0,2,0.9,3.7,2.2,5v1.9l-6.2,0.9l-3.8-4.4h0.1v-5.6h2.2V4.5H32.7L28.3,0H16.2l-4.5,4.5H0
	v6.7h2.2v26.7H0v6.7h11.1v3.1L3.7,66.8H0V69h69v-2.2h-4.5V45.4C64.9,45.5,65.3,45.6,65.7,45.6z M57.8,31.9l-1.1,1.1l-1.1-1.1
	l0.9-7.4c0,0,0.1,0,0.1,0s0.1,0,0.1,0L57.8,31.9z M52.3,11.1c0-2.5,2-4.5,4.5-4.5s4.5,2,4.5,4.5v2.2c0,2.5-2,4.5-4.5,4.5
	s-4.5-2-4.5-4.5V11.1z M56.8,20c0.8,0,1.5-0.1,2.2-0.4v1.2c-0.3,0.4-1,1.4-2.2,1.4c-1.2,0-2-1-2.2-1.4v-1.2C55.2,19.9,56,20,56.8,20
	z M52.9,22.3c0.3,0.5,0.9,1,1.6,1.5l-1.1,8.8l3.4,3.4l3.4-3.4l-1.1-8.8c0.7-0.4,1.3-1,1.6-1.5l4.2,0.6c1.1,0.2,1.9,1.1,1.9,2.2v17.1
	c0,0.6-0.5,1.1-1.1,1.1c-0.6,0-1.1-0.5-1.1-1.1V26.7h-2.2v11.1H51.2V26.7h-6.7c-0.3,0-0.7-0.2-0.9-0.4l-7.7-9.7
	c-0.2-0.2-0.3-0.5-0.3-0.7v-0.2c0-0.7,0.5-1.2,1.2-1.2c0.3,0,0.7,0.1,0.9,0.4l7.5,8.6L52.9,22.3z M18.9,49v17.8h-8.4L17.5,49H18.9z
	 M21.1,49h2.2v17.8h-2.2V49z M25.6,49h1.5L34,66.8h-8.4V49z M29.4,49h2.1l6.9,17.8h-2.1L29.4,49z M33.4,47.6v-3.1h11.1v-6.7h-2.2
	v-9.7c0.6,0.5,1.4,0.8,2.2,0.8H49v37.8h-8.1L33.4,47.6z M51.2,40.1h4.5v26.7h-4.5V40.1z M2.2,6.7h10.5l4.5-4.5h10.2l4.5,4.5h10.5
	v2.2H2.2V6.7z M4.5,11.1h35.6v3.1l-0.7-0.8c-0.6-0.7-1.6-1.2-2.6-1.2c-1.9,0-3.4,1.5-3.4,3.4v0.2c0,0.8,0.3,1.5,0.7,2.1l5.9,7.4
	v12.4H4.5V11.1z M2.2,40.1h40.1v2.2H2.2V40.1z M31.2,44.5v2.2H13.4v-2.2H31.2z M13,49h2.1L8.1,66.8H6.1L13,49z M57.9,66.8V40.1h4.5
	v26.7H57.9z"/>
<g>
	<path class="st1" d="M21.9,15.3c5.3,0,9.5,2.8,9.5,6.4s-4.3,6.4-9.5,6.4c-5.3,0-9.5-2.8-9.5-6.4C12.4,18.2,16.6,15.3,21.9,15.3
		L21.9,15.3z M24.7,22.2h-2.8v1.1c0.7,0,0.5,0,1.5,0c-0.2,0.7-0.9,1.5-1.5,2c-1.1-0.7-1.8-2.2-1.8-3.4c0-1.4,0.7-2.7,1.8-3.4
		c1.1,0.7,1.6,1.7,1.7,3h6.2c-0.2-2.7-2.6-4.9-5.4-4.9c-0.9,0-1.7,0.2-2.5,0.6c-0.7-0.4-1.6-0.6-2.5-0.6c-3,0-5.4,2.3-5.4,5.4
		c0,3,2.5,5.4,5.4,5.4c0.9,0,1.7-0.2,2.5-0.6c0.7,0.4,1.6,0.6,2.5,0.6c2.5,0,4.6-1.6,5.2-3.8h-1.1c-0.6,1.6-2.2,2.7-4.1,2.7
		c-0.5,0-1-0.1-1.5-0.2C24,24.9,24.6,23.6,24.7,22.2L24.7,22.2z M23,17.7c0.7,0.6,1.4,1.5,1.6,2.5h3.9c-0.6-1.6-2.2-2.7-4.1-2.7
		C23.8,17.4,23.4,17.6,23,17.7L23,17.7z M20.9,17.7c-0.5-0.1-1-0.2-1.5-0.2c-2.3,0-4.3,2-4.3,4.3s2,4.3,4.3,4.3c0.5,0,1-0.1,1.5-0.2
		c-1.1-1-1.8-2.5-1.8-4.1C19,20.1,19.8,18.7,20.9,17.7z"/>
	<path class="st1" d="M6.6,32h0.7l0,0v0.1c0,0.2-0.1,0.5-0.2,0.6C7,32.8,6.7,33,6.5,33c-0.1,0-0.2,0-0.4-0.1c-0.1,0-0.2-0.1-0.4-0.2
		c-0.1-0.1-0.1-0.2-0.2-0.4c0-0.1-0.1-0.2-0.1-0.4c0-0.1,0-0.2,0.1-0.4c0-0.1,0.1-0.2,0.2-0.4C5.9,31,6,31,6.1,30.9
		c0.1,0,0.2-0.1,0.4-0.1c0.1,0,0.2,0,0.4,0.1c0.1,0,0.2,0.1,0.4,0.2L7,31.2c-0.1-0.1-0.1-0.1-0.2-0.1c-0.1,0-0.1,0-0.2,0
		c-0.2,0-0.4,0.1-0.5,0.2c-0.1,0.1-0.2,0.2-0.2,0.5c0,0.2,0.1,0.4,0.2,0.5c0.1,0.1,0.2,0.2,0.5,0.2c0.1,0,0.4,0,0.4-0.1
		C7,32.3,7,32.2,7,32.1l0,0H6.5V32H6.6z M8,33v-1.8h0.4v1.6h0.7V33H8L8,33z M10.9,32c0-0.1,0-0.2,0-0.2c0-0.1-0.1-0.1-0.1-0.2
		c-0.1-0.1-0.1-0.1-0.2-0.1s-0.1,0-0.2,0c-0.1,0-0.1,0-0.2,0s-0.1,0.1-0.2,0.1c-0.1,0.1-0.1,0.1-0.1,0.2s0,0.1,0,0.2s0,0.2,0,0.2
		c0,0.1,0.1,0.1,0.1,0.2c0.1,0.1,0.1,0.1,0.2,0.1s0.1,0,0.2,0c0.1,0,0.1,0,0.2,0s0.1-0.1,0.2-0.1c0.1-0.1,0.1-0.1,0.1-0.2
		C10.9,32.2,10.9,32.1,10.9,32L10.9,32z M11.3,32c0,0.1,0,0.2-0.1,0.4c0,0.1-0.1,0.2-0.2,0.4s-0.2,0.1-0.4,0.2
		c-0.1,0-0.2,0.1-0.4,0.1c-0.1,0-0.2,0-0.4-0.1c-0.1,0-0.2-0.1-0.4-0.2c-0.1-0.1-0.1-0.2-0.2-0.4c0-0.1-0.1-0.2-0.1-0.4
		s0-0.2,0.1-0.4c0-0.1,0.1-0.2,0.2-0.4c0.1-0.1,0.2-0.1,0.4-0.2c0.1,0,0.2-0.1,0.4-0.1c0.1,0,0.2,0,0.4,0.1c0.1,0,0.2,0.1,0.4,0.2
		c0.1,0.1,0.1,0.2,0.2,0.4C11.3,31.7,11.3,31.8,11.3,32L11.3,32z M12.2,31.8L12.2,31.8c0.2,0,0.4,0,0.5,0c0,0,0.1-0.1,0.1-0.2
		s0-0.1-0.1-0.2c0,0-0.1-0.1-0.4-0.1h-0.1V31.8L12.2,31.8z M12.2,32.7L12.2,32.7c0.2,0,0.2,0,0.4,0h0.1c0,0,0.1,0,0.1-0.1v-0.1v-0.1
		c0,0,0-0.1-0.1-0.1h-0.1h-0.1h-0.1h-0.1L12.2,32.7L12.2,32.7z M11.9,33v-1.8h0.5c0.1,0,0.2,0,0.2,0c0.1,0,0.1,0,0.1,0.1l0.1,0.1
		c0,0.1,0,0.1,0,0.2s0,0.2-0.1,0.2c0,0.1-0.1,0.1-0.2,0.1c0.1,0,0.2,0.1,0.2,0.1c0.1,0.1,0.1,0.2,0.1,0.4s0,0.1,0,0.2
		c0,0.1-0.1,0.1-0.1,0.1S12.6,33,12.5,33c-0.1,0-0.2,0-0.4,0L11.9,33L11.9,33z M14.1,32.2h0.5l-0.2-0.5c0,0,0,0,0-0.1v-0.1v0.1v0.1
		L14.1,32.2L14.1,32.2z M15,33l-0.2-0.5H14L13.8,33h-0.4l1-2l0.9,2H15L15,33z M15.7,33v-1.8h0.4v1.6h0.7V33H15.7L15.7,33z M18.2,33
		v-1.8h1.1v0.2h-0.7v0.5h0.7v0.2h-0.7v0.6h0.7V33H18.2L18.2,33z M19.9,33v-2l1.2,1.1l0.1,0.1l0.1,0.1V31h0.2v2l-1.2-1.2l-0.1-0.1
		c0,0,0-0.1-0.1-0.1v1.4h-0.2V33z M23.4,32h0.7l0,0v0.1c0,0.2-0.1,0.5-0.2,0.6c-0.1,0.1-0.4,0.2-0.6,0.2c-0.1,0-0.2,0-0.4-0.1
		c-0.1,0-0.2-0.1-0.4-0.2c-0.1-0.1-0.1-0.2-0.2-0.4c0-0.1-0.1-0.2-0.1-0.4c0-0.1,0-0.2,0.1-0.4c0-0.1,0.1-0.2,0.2-0.4
		c0.1-0.1,0.2-0.1,0.4-0.2c0.1,0,0.2-0.1,0.4-0.1c0.1,0,0.2,0,0.4,0.1c0.1,0,0.2,0.1,0.4,0.2l-0.2,0.1c-0.1-0.1-0.1-0.1-0.2-0.1
		c-0.1,0-0.1,0-0.2,0c-0.2,0-0.4,0.1-0.5,0.2c-0.1,0.1-0.2,0.2-0.2,0.5c0,0.2,0.1,0.4,0.2,0.5c0.1,0.1,0.2,0.2,0.5,0.2
		c0.1,0,0.4,0,0.4-0.1c0.1-0.1,0.1-0.2,0.1-0.4l0,0h-0.5V32H23.4z M24.7,33v-1.8h0.4V33H24.7L24.7,33z M25.7,33v-2l1.2,1.1l0.1,0.1
		l0.1,0.1V31h0.2v2l-1.2-1.2l-0.1-0.1c0,0,0-0.1-0.1-0.1v1.4h-0.2V33z M28,33v-1.8h1.1v0.2h-0.7v0.5h0.7v0.2h-0.7v0.6h0.7V33H28
		L28,33z M29.8,33v-1.8h1.1v0.2h-0.7v0.5h0.7v0.2h-0.7v0.6h0.7V33H29.8L29.8,33z M31.7,31.8L31.7,31.8c0.2,0,0.4,0,0.4,0
		s0.1-0.1,0.1-0.2s0-0.1-0.1-0.2c0,0-0.1-0.1-0.4-0.1l0,0V31.8L31.7,31.8z M31.6,32.1V33h-0.2v-1.8h0.5c0.1,0,0.2,0,0.2,0
		c0.1,0,0.1,0,0.1,0.1l0.1,0.1c0,0.1,0,0.1,0,0.2s0,0.2-0.1,0.4c0,0,0,0.1-0.2,0.1l0.6,0.9h-0.4L31.6,32.1L31.6,32.1L31.6,32.1z
		 M33.1,33v-1.8h0.4V33H33.1L33.1,33z M34.1,33v-2l1.2,1.1l0.1,0.1l0.1,0.1V31h0.2v2l-1.2-1.2l-0.1-0.1c0,0,0-0.1-0.1-0.1v1.4h-0.2
		V33z M37.5,32h0.7l0,0v0.1c0,0.2-0.1,0.5-0.2,0.6c-0.1,0.1-0.4,0.2-0.6,0.2c-0.1,0-0.2,0-0.4-0.1c-0.1,0-0.2-0.1-0.4-0.2
		c-0.1-0.1-0.1-0.2-0.2-0.4c0-0.1-0.1-0.2-0.1-0.4c0-0.1,0-0.2,0.1-0.4c0-0.1,0.1-0.2,0.2-0.4c0.1-0.1,0.2-0.1,0.4-0.2
		c0.1,0,0.2-0.1,0.4-0.1s0.2,0,0.4,0.1c0.1,0,0.2,0.1,0.4,0.2l-0.2,0.1c-0.1-0.1-0.1-0.1-0.2-0.1c-0.1,0-0.1,0-0.2,0
		c-0.2,0-0.4,0.1-0.5,0.2c-0.1,0.1-0.2,0.2-0.2,0.5c0,0.2,0.1,0.4,0.2,0.5c0.1,0.1,0.2,0.2,0.5,0.2c0.1,0,0.4,0,0.4-0.1
		c0.1-0.1,0.1-0.2,0.1-0.4l0,0h-0.5V32H37.5z"/>
</g>
</svg>
