<?xml version="1.0" encoding="utf-8"?>
<!-- Generator: Adobe Illustrator 22.1.0, SVG Export Plug-In . SVG Version: 6.00 Build 0)  -->
<svg version="1.1" id="Capa_1" xmlns="http://www.w3.org/2000/svg" xmlns:xlink="http://www.w3.org/1999/xlink" x="0px" y="0px"
	 viewBox="0 0 18 18" style="enable-background:new 0 0 18 18;" xml:space="preserve">
<style type="text/css">
	.st0{fill:#00619F;}
</style>
<g>
	<g>
		<path class="st0" d="M9,0C4,0,0,4,0,9c0,5,4,9,9,9c5,0,9-4,9-9S14,0,9,0z M9,16c-3.9,0-7-3.2-7-7c0-3.9,3.2-7,7-7s7,3.2,7,7
			C16,12.9,12.9,16,9,16z"/>
		<path class="st0" d="M9.8,9V5.2c0-0.4-0.3-0.8-0.8-0.8c-0.4,0-0.8,0.3-0.8,0.8v4c0,0,0,0,0,0c0,0.2,0.1,0.4,0.2,0.6l2.8,2.8
			c0.3,0.3,0.8,0.3,1.1,0c0.3-0.3,0.3-0.8,0-1.1L9.8,9z"/>
	</g>
</g>
</svg>
