<?xml version="1.0" encoding="utf-8"?>
<!-- Generator: Adobe Illustrator 22.1.0, SVG Export Plug-In . SVG Version: 6.00 Build 0)  -->
<svg version="1.1" id="Capa_1" xmlns="http://www.w3.org/2000/svg" xmlns:xlink="http://www.w3.org/1999/xlink" x="0px" y="0px"
	 viewBox="0 0 18 18" style="enable-background:new 0 0 18 18;" xml:space="preserve">
<style type="text/css">
	.st0{fill:#00619F;}
</style>
<g>
	<g>
		<g>
			<polygon class="st0" points="11.9,9.1 18,12.9 18,5.1 			"/>
		</g>
	</g>
	<g>
		<g>
			<polygon class="st0" points="0,5.1 0,12.9 6.1,9.1 			"/>
		</g>
	</g>
	<g>
		<g>
			<path class="st0" d="M16.9,2.9H1.1c-0.5,0-1,0.4-1.1,0.9l9,5.9l9-5.9C17.8,3.2,17.4,2.9,16.9,2.9z"/>
		</g>
	</g>
	<g>
		<g>
			<path class="st0" d="M10.9,9.8l-1.6,1.1c-0.1,0.1-0.2,0.1-0.3,0.1s-0.2,0-0.3-0.1L7.1,9.8L0,14.3c0.1,0.5,0.5,1,1.1,1h15.8
				c0.5,0,1-0.4,1.1-1L10.9,9.8z"/>
		</g>
	</g>
</g>
</svg>
