<?xml version="1.0" encoding="utf-8"?>
<!-- Generator: Adobe Illustrator 22.1.0, SVG Export Plug-In . SVG Version: 6.00 Build 0)  -->
<svg version="1.1" id="Layer_1" xmlns="http://www.w3.org/2000/svg" xmlns:xlink="http://www.w3.org/1999/xlink" x="0px" y="0px"
	 viewBox="0 0 80 70" style="enable-background:new 0 0 80 70;" xml:space="preserve">
<style type="text/css">
	.st0{fill:#C3C5C8;}
	.st1{fill-rule:evenodd;clip-rule:evenodd;fill:#0051A3;}
	.st2{fill:#0051A3;}
</style>
<path class="st0" d="M78.4,64.7h-2v-6.9h0c-0.1-3.5-1.1-6.7-2.9-9.5V10.6c0-1.8-1.5-3.3-3.3-3.3H59.7c-1.8,0-3.3,1.5-3.3,3.3v29.5
	c-0.8,0.1-1.6,0.3-2.4,0.5V23.2c0-1.8-1.7-3.3-3.7-3.3h-1.4v-0.1c0-1.1-0.9-2-2-2h-2.9c-1.1,0-2,0.9-2,2V20H41V4.2
	C41,1.9,39.1,0,36.7,0h-16c-2.4,0-4.3,1.9-4.3,4.2v11.2H7.7c-2.4,0-4.3,1.9-4.3,4.2v32.5h0.2c-0.1,0.7-0.1,1.3-0.1,2h0v10.6H1.2
	c-0.8,0-1.4,0.6-1.4,1.4v2.6c0,0.8,0.6,1.4,1.4,1.4h77.2c0.8,0,1.4-0.6,1.4-1.4V66C79.8,65.3,79.2,64.7,78.4,64.7z M13.3,58.1
	c-1.5-0.8-2.4-2.3-2.4-4v-4.2c0-1.7,0.9-3.2,2.4-4V58.1z M12.3,58.6v6H7.1l3.5-8C11,57.5,11.6,58.1,12.3,58.6z M13.3,59.9
	c0,0.8,0.6,1.4,1.4,1.4h0.9c0.8,0,1.4-0.6,1.4-1.4v-0.2h3.6v0.2c0,0.8,0.6,1.4,1.4,1.4h0.9c0.8,0,1.4-0.6,1.4-1.4v-0.2h3.6v0.2
	c0,0.8,0.6,1.4,1.4,1.4h0.9c0.8,0,1.4-0.6,1.4-1.4v-0.8c0.1,0,0.2-0.1,0.3-0.1v5.7H13.3V59.9z M14.3,59.9v-16c0-0.2,0.2-0.4,0.4-0.4
	h0.9c0.2,0,0.4,0.2,0.4,0.4v16c0,0.2-0.2,0.4-0.4,0.4h-0.9C14.5,60.2,14.3,60.1,14.3,59.9z M17,45.4h3.6v13.3H17V45.4z M21.6,59.9
	v-16c0-0.2,0.2-0.4,0.4-0.4h0.9c0.2,0,0.4,0.2,0.4,0.4v16c0,0.2-0.2,0.4-0.4,0.4H22C21.8,60.2,21.6,60.1,21.6,59.9z M24.3,45.4h3.6
	v13.3h-3.6V45.4z M28.9,59.9v-16c0-0.2,0.2-0.4,0.4-0.4h0.9c0.2,0,0.4,0.2,0.4,0.4v16c0,0.2-0.2,0.4-0.4,0.4h-0.9
	C29.1,60.2,28.9,60.1,28.9,59.9z M34.6,48.9h0.7c1.2,0,2.2,0.8,2.2,1.7v3c0,1-1,1.7-2.2,1.7h-0.7c0.1-0.4,0.1-0.8,0.1-1.2v-4.2
	C34.7,49.5,34.7,49.2,34.6,48.9z M33.7,54.1c0,1.6-0.8,3-2.1,3.8V46.1c1.3,0.8,2.1,2.2,2.1,3.8V54.1z M32.9,58.2
	c0.3-0.3,0.6-0.6,0.9-1l4.6,7.5h-5.5L32.9,58.2L32.9,58.2z M39.6,64.7l-5.2-8.3h0.9c1.6,0,2.9-1,3.1-2.4h2.7
	c-0.3,1.2-0.5,2.5-0.5,3.8h0v6.9H39.6z M45.5,50.7c1.8,0,3.3,1.4,3.3,3.2v7h-2.5l0-5.2c0-1.6-1.3-2.9-2.9-2.9h-4.9v-2.2H45.5z
	 M43.4,53.9c1,0,1.9,0.8,1.9,1.9l0,1.9h-3.6c0-1.3,0.2-2.6,0.5-3.8H43.4z M41.7,58.7h3.6l0,2.3c-1.6,0.1-2.9,1.5-2.9,3.1v0.6h-0.7
	V58.7z M43.3,64.1c0-1.2,1-2.1,2.2-2.1H49c1.2,0,2.2,1,2.2,2.1v0.6h-7.8V64.1z M49.8,61.1v-2.3h25.6v5.9H52.2v-0.6
	C52.2,62.6,51.2,61.4,49.8,61.1z M49.8,57.7V54c0-2.3-1.9-4.2-4.3-4.2h-1.7c1.7-3.1,4.4-5.7,7.6-7.2c0.7-0.3,1.5-0.6,2.3-0.9
	c1.6-0.5,3.2-0.7,4.8-0.7c9.1,0,16.6,7.5,16.8,16.8H49.8z M70.1,44.3c-2.8-2.4-6.3-4-10.2-4.3V11.4c0-0.5,0.4-0.9,1-0.9h8.3
	c0.5,0,1,0.4,1,0.9V44.3z M57.5,10.6c0-1.2,1-2.2,2.3-2.2h10.4c1.3,0,2.3,1,2.3,2.2v36.3c-0.4-0.5-0.9-1.1-1.4-1.6V11.4
	c0-1.1-0.9-1.9-2-1.9h-8.3c-1.1,0-2,0.9-2,1.9v28.5c-0.1,0-0.2,0-0.3,0c-0.3,0-0.7,0-1,0V10.6z M50.3,21c1.5,0,2.7,1,2.7,2.2v17.6
	c-0.6,0.2-1.2,0.4-1.7,0.7V24.1c0-1.1-0.9-1.9-2-1.9h-0.4V21H50.3z M47.9,19.9v3.5c0,0.5-0.4,1-1,1h-1.6v-5.4h1.6
	C47.5,18.9,47.9,19.4,47.9,19.9z M43.1,19.9c0-0.5,0.4-1,1-1h0.3v5.4h-0.3c-0.5,0-1-0.4-1-1V19.9z M44.1,25.3h2.9c1.1,0,2-0.9,2-2
	v-0.2h0.4c0.5,0,1,0.4,1,0.9V42c0,0-0.1,0-0.1,0.1c-2.3-3.5-5.5-6.2-9.2-8.1V23.2h1.1v0.2C42.1,24.5,43,25.3,44.1,25.3z M42.1,21
	v1.2H41V21H42.1z M17.4,4.2c0-1.8,1.5-3.2,3.3-3.2h16C38.5,1,40,2.4,40,4.2v29.2c-0.8-0.4-1.6-0.7-2.5-1V6.1c0-1.6-1.3-2.9-2.9-2.9
	H22.8c-1.6,0-2.9,1.3-2.9,2.9v9.3h-2.5V4.2z M36.5,32.1c-2.5-0.7-5-1.1-7.7-1.1c-0.2,0-0.5,0-0.7,0V19.6c0-2.3-1.9-4.2-4.3-4.2h-2.8
	V6.1c0-1,0.8-1.9,1.9-1.9h11.7c1,0,1.9,0.8,1.9,1.9V32.1z M4.5,19.6c0-1.8,1.5-3.2,3.3-3.2h16c1.8,0,3.3,1.4,3.3,3.2v11.5
	c-0.8,0.1-1.7,0.1-2.5,0.3v-9.9c0-1.6-1.3-2.9-2.9-2.9H9.9c-1.6,0-2.9,1.3-2.9,2.9v21.2c-1.1,1.7-1.9,3.5-2.5,5.3V19.6z M18.1,33.2
	c-4.1,1.8-7.6,4.6-10.1,8V21.4c0-1,0.8-1.9,1.9-1.9h10.1v12.9C19.3,32.7,18.7,33,18.1,33.2z M20.9,19.6h0.7c1,0,1.9,0.8,1.9,1.9
	v10.1c-0.9,0.2-1.7,0.4-2.6,0.6V19.6z M4.5,54.6c0-8.7,5.5-16.8,14-20.4c3.2-1.4,6.7-2.1,10.3-2.1c8.4,0,16,3.9,20.5,10.5
	c-2.8,1.7-5.1,4.2-6.6,7.2h-4.4c-0.4-1.1-1.6-1.9-3-1.9h-1c-0.5-1.3-1.5-2.3-2.7-2.9v-1.1c0-0.8-0.6-1.4-1.4-1.4h-0.9
	c-0.8,0-1.4,0.6-1.4,1.4v0.5h-3.6v-0.5c0-0.8-0.6-1.4-1.4-1.4H22c-0.8,0-1.4,0.6-1.4,1.4v0.5H17v-0.5c0-0.8-0.6-1.4-1.4-1.4h-0.9
	c-0.8,0-1.4,0.6-1.4,1.4v0.9c-2.1,0.9-3.4,2.8-3.4,5.1v4.2c0,0.4,0.1,0.8,0.2,1.2L6,64.7H4.5V54.6z M78.8,68.6
	c0,0.2-0.2,0.4-0.4,0.4H1.2c-0.2,0-0.4-0.2-0.4-0.4V66c0-0.2,0.2-0.4,0.4-0.4h39.5h35.7h2c0.2,0,0.4,0.2,0.4,0.4V68.6z"/>
<g>
	<path class="st1" d="M62.6,44.4c3.6,0,6.5,2,6.5,4.4c0,2.4-2.9,4.4-6.5,4.4c-3.6,0-6.5-2-6.5-4.4C56.1,46.4,59,44.4,62.6,44.4
		L62.6,44.4z M64.6,49.2l-2,0v0.7c0.5,0,0.3,0,1,0c-0.2,0.5-0.6,1-1,1.3c-0.7-0.5-1.2-1.5-1.2-2.4c0-0.9,0.5-1.9,1.2-2.4
		c0.7,0.5,1.1,1.2,1.1,2.1H68c-0.2-1.9-1.7-3.4-3.7-3.4c-0.6,0-1.2,0.2-1.7,0.4c-0.5-0.3-1.1-0.4-1.7-0.4c-2,0-3.7,1.6-3.7,3.7
		c0,2,1.6,3.7,3.7,3.7c0.6,0,1.2-0.2,1.7-0.4c0.5,0.3,1.1,0.4,1.7,0.4c1.7,0,3.1-1.1,3.5-2.6h-0.8c-0.4,1.1-1.5,1.9-2.7,1.9
		c-0.4,0-0.7-0.1-1-0.2C64,51,64.5,50.1,64.6,49.2L64.6,49.2z M63.3,46.1c0.5,0.4,0.9,1,1.1,1.7l2.7,0c-0.4-1.1-1.5-1.9-2.7-1.9
		C64,45.9,63.6,46,63.3,46.1L63.3,46.1z M61.9,46.1c-0.3-0.1-0.7-0.2-1-0.2c-1.6,0-2.9,1.3-2.9,2.9c0,1.6,1.3,2.9,2.9,2.9
		c0.4,0,0.7-0.1,1-0.2c-0.8-0.7-1.3-1.7-1.3-2.8C60.6,47.7,61.1,46.7,61.9,46.1z"/>
	<path class="st2" d="M52.2,55.8h0.5c0,0,0,0,0,0c0,0,0,0.1,0,0.1c0,0.2-0.1,0.3-0.2,0.4c-0.1,0.1-0.3,0.2-0.4,0.2
		c-0.1,0-0.2,0-0.3,0c-0.1,0-0.2-0.1-0.2-0.1c-0.1-0.1-0.1-0.1-0.1-0.2c0-0.1,0-0.2,0-0.3c0-0.1,0-0.2,0.1-0.3
		c0-0.1,0.1-0.2,0.1-0.2c0.1-0.1,0.1-0.1,0.2-0.1c0.1,0,0.2,0,0.3,0c0.1,0,0.2,0,0.3,0.1c0.1,0,0.2,0.1,0.2,0.2l-0.2,0.1
		c0-0.1-0.1-0.1-0.1-0.1c-0.1,0-0.1,0-0.2,0c-0.1,0-0.3,0-0.3,0.1c-0.1,0.1-0.1,0.2-0.1,0.4c0,0.1,0,0.3,0.1,0.4
		c0.1,0.1,0.2,0.1,0.3,0.1c0.1,0,0.2,0,0.3-0.1c0.1-0.1,0.1-0.1,0.1-0.2v0h-0.3V55.8L52.2,55.8z M53.1,56.5v-1.3h0.2v1.1h0.5v0.2
		H53.1L53.1,56.5z M55.2,55.9c0-0.1,0-0.1,0-0.2c0-0.1-0.1-0.1-0.1-0.2c0,0-0.1-0.1-0.2-0.1c-0.1,0-0.1,0-0.2,0c-0.1,0-0.1,0-0.2,0
		c-0.1,0-0.1,0.1-0.2,0.1c0,0-0.1,0.1-0.1,0.2c0,0.1,0,0.1,0,0.2c0,0.1,0,0.1,0,0.2c0,0.1,0.1,0.1,0.1,0.2c0,0,0.1,0.1,0.2,0.1
		c0.1,0,0.1,0,0.2,0c0.1,0,0.1,0,0.2,0c0.1,0,0.1-0.1,0.2-0.1c0,0,0.1-0.1,0.1-0.2C55.1,56,55.2,55.9,55.2,55.9L55.2,55.9z
		 M55.4,55.9c0,0.1,0,0.2-0.1,0.3c0,0.1-0.1,0.2-0.2,0.2c-0.1,0.1-0.1,0.1-0.2,0.1c-0.1,0-0.2,0.1-0.3,0.1c-0.1,0-0.2,0-0.3-0.1
		c-0.1,0-0.2-0.1-0.2-0.1c-0.1-0.1-0.1-0.1-0.2-0.2C54,56,54,56,54,55.9c0-0.1,0-0.2,0.1-0.3c0-0.1,0.1-0.2,0.2-0.2
		c0.1-0.1,0.1-0.1,0.2-0.1c0.1,0,0.2-0.1,0.3-0.1c0.1,0,0.2,0,0.3,0.1c0.1,0,0.2,0.1,0.2,0.1c0.1,0.1,0.1,0.1,0.2,0.2
		C55.4,55.7,55.4,55.8,55.4,55.9L55.4,55.9z M56,55.8L56,55.8c0.2,0,0.3,0,0.3,0c0,0,0.1-0.1,0.1-0.1c0-0.1,0-0.1-0.1-0.2
		c0,0-0.1,0-0.2,0H56V55.8L56,55.8z M56,56.3L56,56.3c0.1,0,0.2,0,0.2,0c0,0,0.1,0,0.1,0c0,0,0,0,0.1-0.1c0,0,0-0.1,0-0.1
		c0,0,0-0.1,0-0.1c0,0,0-0.1-0.1-0.1c0,0,0,0-0.1,0c0,0-0.1,0-0.1,0h-0.1H56V56.3L56,56.3z M55.8,56.5v-1.3h0.3c0.1,0,0.2,0,0.2,0
		c0,0,0.1,0,0.1,0c0,0,0.1,0.1,0.1,0.1c0,0,0,0.1,0,0.2c0,0.1,0,0.1,0,0.2c0,0-0.1,0.1-0.1,0.1c0.1,0,0.1,0,0.2,0.1
		c0,0.1,0.1,0.1,0.1,0.2c0,0.1,0,0.1,0,0.2c0,0,0,0.1-0.1,0.1c0,0-0.1,0.1-0.1,0.1c-0.1,0-0.1,0-0.3,0H55.8L55.8,56.5z M57.3,56h0.4
		l-0.1-0.3c0,0,0,0,0-0.1c0,0,0-0.1,0-0.1c0,0,0,0.1,0,0.1c0,0,0,0,0,0.1L57.3,56L57.3,56z M57.9,56.5l-0.1-0.3h-0.5L57,56.5h-0.2
		l0.6-1.4l0.6,1.4H57.9L57.9,56.5z M58.4,56.5v-1.3h0.2v1.1h0.5v0.2H58.4L58.4,56.5z M60.1,56.5v-1.3h0.7v0.2h-0.5v0.3h0.5v0.2h-0.5
		v0.4h0.5v0.2H60.1L60.1,56.5z M61.2,56.5v-1.4l0.8,0.8c0,0,0,0,0.1,0.1c0,0,0,0.1,0.1,0.1v-0.9h0.2v1.4l-0.8-0.8c0,0,0,0-0.1-0.1
		c0,0,0,0-0.1-0.1v0.9H61.2L61.2,56.5z M63.6,55.8h0.5c0,0,0,0,0,0c0,0,0,0.1,0,0.1c0,0.2-0.1,0.3-0.2,0.4c-0.1,0.1-0.3,0.2-0.4,0.2
		c-0.1,0-0.2,0-0.3,0c-0.1,0-0.2-0.1-0.2-0.1c-0.1-0.1-0.1-0.1-0.1-0.2c0-0.1,0-0.2,0-0.3c0-0.1,0-0.2,0.1-0.3
		c0-0.1,0.1-0.2,0.1-0.2c0.1-0.1,0.1-0.1,0.2-0.1c0.1,0,0.2,0,0.3,0c0.1,0,0.2,0,0.3,0.1c0.1,0,0.2,0.1,0.2,0.2l-0.2,0.1
		c0-0.1-0.1-0.1-0.1-0.1c-0.1,0-0.1,0-0.2,0c-0.1,0-0.3,0-0.3,0.1c-0.1,0.1-0.1,0.2-0.1,0.4c0,0.1,0,0.3,0.1,0.4
		c0.1,0.1,0.2,0.1,0.3,0.1c0.1,0,0.2,0,0.3-0.1c0.1-0.1,0.1-0.1,0.1-0.2v0h-0.3V55.8L63.6,55.8z M64.5,56.5v-1.3h0.2v1.3H64.5
		L64.5,56.5z M65.2,56.5v-1.4L66,56c0,0,0,0,0.1,0.1c0,0,0,0.1,0.1,0.1v-0.9h0.2v1.4l-0.8-0.8c0,0,0,0-0.1-0.1c0,0,0,0-0.1-0.1v0.9
		H65.2L65.2,56.5z M66.8,56.5v-1.3h0.7v0.2H67v0.3h0.5v0.2H67v0.4h0.5v0.2H66.8L66.8,56.5z M67.9,56.5v-1.3h0.7v0.2h-0.5v0.3h0.5
		v0.2h-0.5v0.4h0.5v0.2H67.9L67.9,56.5z M69.3,55.8L69.3,55.8c0.2,0,0.2,0,0.3,0c0,0,0.1-0.1,0.1-0.1c0-0.1,0-0.1-0.1-0.2
		c0,0-0.1,0-0.2,0h0V55.8L69.3,55.8z M69.3,55.9v0.6h-0.2v-1.3h0.3c0.1,0,0.2,0,0.2,0c0,0,0.1,0,0.1,0.1c0,0,0.1,0.1,0.1,0.1
		c0,0,0,0.1,0,0.2c0,0.1,0,0.2-0.1,0.2c-0.1,0.1-0.1,0.1-0.2,0.1l0.4,0.6h-0.2L69.3,55.9L69.3,55.9L69.3,55.9z M70.3,56.5v-1.3h0.2
		v1.3H70.3L70.3,56.5z M70.9,56.5v-1.4l0.8,0.8c0,0,0,0,0.1,0.1c0,0,0,0.1,0.1,0.1v-0.9h0.2v1.4l-0.8-0.8c0,0,0,0-0.1-0.1
		c0,0,0,0-0.1-0.1v0.9H70.9L70.9,56.5z M73.3,55.8h0.5c0,0,0,0,0,0c0,0,0,0.1,0,0.1c0,0.2-0.1,0.3-0.2,0.4c-0.1,0.1-0.3,0.2-0.4,0.2
		c-0.1,0-0.2,0-0.3,0c-0.1,0-0.2-0.1-0.2-0.1c-0.1-0.1-0.1-0.1-0.1-0.2c0-0.1,0-0.2,0-0.3c0-0.1,0-0.2,0.1-0.3
		c0-0.1,0.1-0.2,0.1-0.2c0.1-0.1,0.1-0.1,0.2-0.1c0.1,0,0.2,0,0.3,0c0.1,0,0.2,0,0.3,0.1c0.1,0,0.2,0.1,0.2,0.2l-0.2,0.1
		c0-0.1-0.1-0.1-0.1-0.1c-0.1,0-0.1,0-0.2,0c-0.1,0-0.3,0-0.3,0.1c-0.1,0.1-0.1,0.2-0.1,0.4c0,0.1,0,0.3,0.1,0.4
		c0.1,0.1,0.2,0.1,0.3,0.1c0.1,0,0.2,0,0.3-0.1c0.1-0.1,0.1-0.1,0.1-0.2v0h-0.3V55.8z"/>
</g>
</svg>
