<?xml version="1.0" encoding="utf-8"?>
<!-- Generator: Adobe Illustrator 22.1.0, SVG Export Plug-In . SVG Version: 6.00 Build 0)  -->
<svg version="1.1" id="Capa_1" xmlns="http://www.w3.org/2000/svg" xmlns:xlink="http://www.w3.org/1999/xlink" x="0px" y="0px"
	 viewBox="0 0 65 65" style="enable-background:new 0 0 65 65;" xml:space="preserve">
<style type="text/css">
	.st0{fill:#C3C5C8;}
	.st1{fill-rule:evenodd;clip-rule:evenodd;fill:#0051A3;}
	.st2{fill:#0051A3;}
</style>
<g>
	<g>
		<g>
			<path class="st0" d="M59.9,56.9L50,39.7c3.9-4.2,6.2-9.8,6.2-16c0-6.6-2.7-12.5-7-16.7S39.1,0,32.5,0S20.1,2.7,15.8,7
				s-7,10.2-7,16.7c0,6.2,2.3,11.8,6.2,16l-10,17.2C4.9,57.2,4.9,57.6,5,58c0.2,0.6,0.9,0.9,1.5,0.7l8-3.2l1.2,8.5
				c0.1,0.3,0.2,0.7,0.6,0.8c0.6,0.3,1.3,0.1,1.6-0.4L27.9,47c1.4,0.3,3,0.4,4.5,0.4c1.6,0,3.1-0.2,4.5-0.4L47,64.4
				c0.3,0.6,1.1,0.7,1.6,0.4c0.3-0.2,0.5-0.5,0.6-0.8l1.2-8.5l8,3.2c0.6,0.2,1.3-0.1,1.5-0.7C60.2,57.6,60.1,57.2,59.9,56.9z
				 M17.6,60.3l-1-6.6c-0.1-0.6-0.7-1.1-1.3-1c-0.1,0-0.2,0.1-0.3,0.1l-6.2,2.4l8-13.8c2.5,2.2,5.5,3.9,8.8,4.9L17.6,60.3z M32.5,45
				c-5.9,0-11.2-2.4-15.1-6.2s-6.2-9.2-6.2-15.1s2.4-11.2,6.2-15.1c3.8-3.9,9.2-6.3,15.1-6.3s11.2,2.4,15.1,6.2s6.2,9.2,6.2,15.1
				s-2.4,11.2-6.2,15.1C43.8,42.7,38.4,45,32.5,45z M50.1,52.8c-0.1-0.1-0.2-0.1-0.3-0.1c-0.6-0.1-1.2,0.3-1.3,1l-1,6.6l-8-14
				c3.3-1,6.3-2.7,8.8-4.9l8,13.8L50.1,52.8z"/>
		</g>
	</g>
	<g>
		<g>
			<path class="st0" d="M45.7,10.6c-3.3-3.3-8-5.4-13.1-5.4s-9.7,2.1-13.1,5.4s-5.4,8-5.4,13.1s2.1,9.7,5.4,13.1
				c3.3,3.3,8,5.4,13.1,5.4c5.1,0,9.7-2.1,13.1-5.4c3.3-3.3,5.4-8,5.4-13.1C51.1,18.6,49,14,45.7,10.6z M44.1,35.1
				c-2.9,2.9-7,4.7-11.5,4.7s-8.5-1.8-11.4-4.7c-2.9-2.9-4.7-7-4.7-11.4s1.8-8.5,4.7-11.4c2.9-2.9,7-4.8,11.4-4.8s8.5,1.8,11.4,4.7
				c2.9,2.9,4.7,7,4.7,11.4S47,32.2,44.1,35.1z"/>
		</g>
	</g>
	<g>
		<path class="st1" d="M32.6,15.4c4.3,0,7.7,2.3,7.7,5.2c0,2.9-3.5,5.2-7.7,5.2c-4.3,0-7.7-2.3-7.7-5.2
			C24.9,17.7,28.3,15.4,32.6,15.4L32.6,15.4z M34.9,21l-2.3,0v0.9c0.6,0,0.4,0,1.2,0c-0.2,0.6-0.7,1.2-1.2,1.6
			c-0.9-0.6-1.5-1.8-1.5-2.8c0-1.1,0.6-2.2,1.5-2.8c0.9,0.6,1.3,1.4,1.4,2.4H39c-0.2-2.2-2.1-4-4.4-4c-0.7,0-1.4,0.2-2,0.5
			c-0.6-0.3-1.3-0.5-2-0.5c-2.4,0-4.4,1.9-4.4,4.4c0,2.4,2,4.4,4.4,4.4c0.7,0,1.4-0.2,2-0.5c0.6,0.3,1.3,0.5,2,0.5
			c2,0,3.7-1.3,4.2-3.1h-0.9c-0.5,1.3-1.8,2.2-3.3,2.2c-0.4,0-0.8-0.1-1.2-0.2C34.3,23.2,34.8,22.1,34.9,21L34.9,21z M33.5,17.3
			c0.6,0.5,1.1,1.2,1.3,2l3.2,0c-0.5-1.3-1.8-2.2-3.3-2.2C34.2,17.1,33.8,17.2,33.5,17.3L33.5,17.3z M31.8,17.3
			c-0.4-0.1-0.8-0.2-1.2-0.2c-1.9,0-3.5,1.6-3.5,3.5c0,1.9,1.6,3.5,3.5,3.5c0.4,0,0.8-0.1,1.2-0.2c-0.9-0.8-1.5-2-1.5-3.3
			C30.3,19.3,30.9,18.1,31.8,17.3z"/>
		<path class="st2" d="M20.2,28.9h0.6c0,0,0,0,0,0c0,0,0,0.1,0,0.1c0,0.2-0.1,0.4-0.2,0.5c-0.1,0.1-0.3,0.2-0.5,0.2
			c-0.1,0-0.2,0-0.3-0.1c-0.1,0-0.2-0.1-0.3-0.2c-0.1-0.1-0.1-0.2-0.2-0.3c0-0.1-0.1-0.2-0.1-0.3c0-0.1,0-0.2,0.1-0.3
			c0-0.1,0.1-0.2,0.2-0.3c0.1-0.1,0.2-0.1,0.3-0.2c0.1,0,0.2-0.1,0.3-0.1c0.1,0,0.2,0,0.3,0.1c0.1,0,0.2,0.1,0.3,0.2l-0.2,0.1
			c-0.1-0.1-0.1-0.1-0.2-0.1c-0.1,0-0.1,0-0.2,0c-0.2,0-0.3,0.1-0.4,0.2c-0.1,0.1-0.2,0.2-0.2,0.4c0,0.2,0.1,0.3,0.2,0.4
			c0.1,0.1,0.2,0.2,0.4,0.2c0.1,0,0.3,0,0.3-0.1c0.1-0.1,0.1-0.2,0.1-0.3v0h-0.4V28.9L20.2,28.9z M21.3,29.7v-1.5h0.3v1.3h0.6v0.2
			H21.3L21.3,29.7z M23.7,28.9c0-0.1,0-0.2,0-0.2c0-0.1-0.1-0.1-0.1-0.2c-0.1-0.1-0.1-0.1-0.2-0.1c-0.1,0-0.1,0-0.2,0
			c-0.1,0-0.1,0-0.2,0s-0.1,0.1-0.2,0.1c-0.1,0.1-0.1,0.1-0.1,0.2c0,0.1,0,0.1,0,0.2c0,0.1,0,0.2,0,0.2c0,0.1,0.1,0.1,0.1,0.2
			c0.1,0.1,0.1,0.1,0.2,0.1c0.1,0,0.1,0,0.2,0c0.1,0,0.1,0,0.2,0c0.1,0,0.1-0.1,0.2-0.1c0.1-0.1,0.1-0.1,0.1-0.2
			C23.7,29.1,23.7,29,23.7,28.9L23.7,28.9z M24,28.9c0,0.1,0,0.2-0.1,0.3c0,0.1-0.1,0.2-0.2,0.3c-0.1,0.1-0.2,0.1-0.3,0.2
			c-0.1,0-0.2,0.1-0.3,0.1c-0.1,0-0.2,0-0.3-0.1c-0.1,0-0.2-0.1-0.3-0.2c-0.1-0.1-0.1-0.2-0.2-0.3c0-0.1-0.1-0.2-0.1-0.3
			c0-0.1,0-0.2,0.1-0.3c0-0.1,0.1-0.2,0.2-0.3c0.1-0.1,0.2-0.1,0.3-0.2c0.1,0,0.2-0.1,0.3-0.1c0.1,0,0.2,0,0.3,0.1
			c0.1,0,0.2,0.1,0.3,0.2c0.1,0.1,0.1,0.2,0.2,0.3C24,28.7,24,28.8,24,28.9L24,28.9z M24.7,28.8L24.7,28.8c0.2,0,0.3,0,0.4,0
			c0,0,0.1-0.1,0.1-0.2c0-0.1,0-0.1-0.1-0.2c0,0-0.1-0.1-0.3-0.1h-0.1V28.8L24.7,28.8z M24.7,29.5L24.7,29.5c0.2,0,0.2,0,0.3,0
			c0,0,0.1,0,0.1,0c0,0,0.1,0,0.1-0.1c0,0,0-0.1,0-0.1c0,0,0-0.1,0-0.1c0,0,0-0.1-0.1-0.1c0,0-0.1,0-0.1,0c0,0-0.1,0-0.1,0h-0.1
			h-0.1V29.5L24.7,29.5z M24.5,29.7v-1.5h0.4c0.1,0,0.2,0,0.2,0c0.1,0,0.1,0,0.1,0.1c0,0,0.1,0.1,0.1,0.1c0,0.1,0,0.1,0,0.2
			c0,0.1,0,0.2-0.1,0.2c0,0.1-0.1,0.1-0.2,0.1c0.1,0,0.2,0.1,0.2,0.1c0.1,0.1,0.1,0.2,0.1,0.3c0,0.1,0,0.1,0,0.2
			c0,0.1-0.1,0.1-0.1,0.1c0,0-0.1,0.1-0.2,0.1c-0.1,0-0.2,0-0.3,0H24.5L24.5,29.7z M26.3,29.1h0.4l-0.2-0.4c0,0,0,0,0-0.1
			c0,0,0-0.1,0-0.1c0,0,0,0.1,0,0.1c0,0,0,0.1,0,0.1L26.3,29.1L26.3,29.1z M27,29.7l-0.2-0.4h-0.6L26,29.7h-0.3l0.8-1.6l0.7,1.6H27
			L27,29.7z M27.6,29.7v-1.5h0.3v1.3h0.6v0.2H27.6L27.6,29.7z M29.6,29.7v-1.5h0.9v0.2h-0.6v0.4h0.6V29h-0.6v0.5h0.6v0.2H29.6
			L29.6,29.7z M31,29.7v-1.6l1,0.9c0,0,0.1,0.1,0.1,0.1c0,0,0.1,0.1,0.1,0.1v-1.1h0.2v1.6l-1-1c0,0-0.1-0.1-0.1-0.1
			c0,0,0-0.1-0.1-0.1v1.1H31L31,29.7z M33.8,28.9h0.6c0,0,0,0,0,0c0,0,0,0.1,0,0.1c0,0.2-0.1,0.4-0.2,0.5c-0.1,0.1-0.3,0.2-0.5,0.2
			c-0.1,0-0.2,0-0.3-0.1c-0.1,0-0.2-0.1-0.3-0.2c-0.1-0.1-0.1-0.2-0.2-0.3c0-0.1-0.1-0.2-0.1-0.3c0-0.1,0-0.2,0.1-0.3
			c0-0.1,0.1-0.2,0.2-0.3c0.1-0.1,0.2-0.1,0.3-0.2c0.1,0,0.2-0.1,0.3-0.1c0.1,0,0.2,0,0.3,0.1c0.1,0,0.2,0.1,0.3,0.2l-0.2,0.1
			c-0.1-0.1-0.1-0.1-0.2-0.1c-0.1,0-0.1,0-0.2,0c-0.2,0-0.3,0.1-0.4,0.2c-0.1,0.1-0.2,0.2-0.2,0.4c0,0.2,0.1,0.3,0.2,0.4
			c0.1,0.1,0.2,0.2,0.4,0.2c0.1,0,0.3,0,0.3-0.1c0.1-0.1,0.1-0.2,0.1-0.3v0h-0.4V28.9L33.8,28.9z M34.9,29.7v-1.5h0.3v1.5H34.9
			L34.9,29.7z M35.7,29.7v-1.6l1,0.9c0,0,0.1,0.1,0.1,0.1c0,0,0.1,0.1,0.1,0.1v-1.1h0.2v1.6l-1-1c0,0-0.1-0.1-0.1-0.1
			c0,0,0-0.1-0.1-0.1v1.1H35.7L35.7,29.7z M37.6,29.7v-1.5h0.9v0.2h-0.6v0.4h0.6V29h-0.6v0.5h0.6v0.2H37.6L37.6,29.7z M39,29.7v-1.5
			h0.9v0.2h-0.6v0.4h0.6V29h-0.6v0.5h0.6v0.2H39L39,29.7z M40.6,28.8L40.6,28.8c0.2,0,0.3,0,0.3,0c0,0,0.1-0.1,0.1-0.2
			c0-0.1,0-0.1-0.1-0.2c0,0-0.1-0.1-0.3-0.1h0V28.8L40.6,28.8z M40.5,29v0.7h-0.2v-1.5h0.4c0.1,0,0.2,0,0.2,0c0.1,0,0.1,0,0.1,0.1
			c0,0,0.1,0.1,0.1,0.1c0,0.1,0,0.1,0,0.2c0,0.1,0,0.2-0.1,0.3C41,28.9,41,29,40.8,29l0.5,0.7h-0.3L40.5,29L40.5,29L40.5,29z
			 M41.7,29.7v-1.5H42v1.5H41.7L41.7,29.7z M42.5,29.7v-1.6l1,0.9c0,0,0.1,0.1,0.1,0.1c0,0,0.1,0.1,0.1,0.1v-1.1h0.2v1.6l-1-1
			c0,0-0.1-0.1-0.1-0.1c0,0,0-0.1-0.1-0.1v1.1H42.5L42.5,29.7z M45.3,28.9h0.6c0,0,0,0,0,0c0,0,0,0.1,0,0.1c0,0.2-0.1,0.4-0.2,0.5
			c-0.1,0.1-0.3,0.2-0.5,0.2c-0.1,0-0.2,0-0.3-0.1c-0.1,0-0.2-0.1-0.3-0.2c-0.1-0.1-0.1-0.2-0.2-0.3c0-0.1-0.1-0.2-0.1-0.3
			c0-0.1,0-0.2,0.1-0.3c0-0.1,0.1-0.2,0.2-0.3c0.1-0.1,0.2-0.1,0.3-0.2c0.1,0,0.2-0.1,0.3-0.1c0.1,0,0.2,0,0.3,0.1
			c0.1,0,0.2,0.1,0.3,0.2l-0.2,0.1c-0.1-0.1-0.1-0.1-0.2-0.1c-0.1,0-0.1,0-0.2,0c-0.2,0-0.3,0.1-0.4,0.2c-0.1,0.1-0.2,0.2-0.2,0.4
			c0,0.2,0.1,0.3,0.2,0.4c0.1,0.1,0.2,0.2,0.4,0.2c0.1,0,0.3,0,0.3-0.1c0.1-0.1,0.1-0.2,0.1-0.3v0h-0.4V28.9z"/>
	</g>
</g>
</svg>
