<?xml version="1.0" encoding="utf-8"?>
<!-- Generator: Adobe Illustrator 22.1.0, SVG Export Plug-In . SVG Version: 6.00 Build 0)  -->
<svg version="1.1" id="Capa_1" xmlns="http://www.w3.org/2000/svg" xmlns:xlink="http://www.w3.org/1999/xlink" x="0px" y="0px"
	 viewBox="0 0 18 18" style="enable-background:new 0 0 18 18;" xml:space="preserve">
<style type="text/css">
	.st0{fill:#00619F;}
</style>
<g>
	<g>
		<g>
			<path class="st0" d="M17.6,14.2l-2.8-2.8c-0.6-0.6-1.5-0.5-2,0l-1.4,1.4c-0.1,0-0.2-0.1-0.3-0.2c-0.9-0.5-2.1-1.2-3.4-2.4
				C6.5,9,5.8,7.8,5.3,6.9C5.2,6.8,5.2,6.7,5.1,6.6L6,5.7l0.5-0.5c0.6-0.6,0.6-1.5,0-2L3.8,0.4c-0.6-0.6-1.5-0.5-2,0L1,1.3l0,0
				C0.7,1.6,0.5,2,0.3,2.4C0.2,2.8,0.1,3.2,0.1,3.6c-0.4,3,1,5.8,4.8,9.6c5.2,5.2,9.4,4.8,9.6,4.8c0.4,0,0.8-0.1,1.2-0.3
				c0.4-0.2,0.8-0.4,1.1-0.6l0,0l0.8-0.8C18.1,15.7,18.1,14.8,17.6,14.2z"/>
		</g>
	</g>
</g>
</svg>
