<svg version="1.1" xmlns="http://www.w3.org/2000/svg" xmlns:xlink="http://www.w3.org/1999/xlink">
	<symbol id="play" viewBox="0 0 24 24">
		<path fill="currentColor" d="M12 2c5.514 0 10 4.486 10 10s-4.486 10-10 10-10-4.486-10-10 4.486-10 10-10zm0-2c-6.627 0-12 5.373-12 12s5.373 12 12 12 12-5.373 12-12-5.373-12-12-12zm-3 17v-10l9 5.146-9 4.854z"/>
	</symbol>
	<symbol id="no-image" viewBox="0 0 48 48">
		<path fill="currentColor" d="M17 23.5c0-.828.672-1.5 1.5-1.5s1.5.672 1.5 1.5c0 .829-.672 1.5-1.5 1.5s-1.5-.671-1.5-1.5zm9 .5l-2.52 4-2.48-1.96-4 4.96h14l-5-7zm7-3v12h-18v-12h18zm2-2h-22v16h22v-16zm-10.992-4c1.104 0 2-.896 2-2s-.896-2-2-2-2 .896-2 2 .895 2 2 2zm-3.15-.5l-2.44 2.5h1.867l1.383-1.416c-.336-.305-.611-.67-.81-1.084zm6.295.006c-.198.413-.474.779-.812 1.083l1.376 1.411h1.865l-2.429-2.494z"/>
	</symbol>
	<symbol id="exit" viewBox="0 0 16 16">
		<path fill="currentColor" d="M12 10v-2h-5v-2h5v-2l3 3zM11 9v4h-5v3l-6-3v-13h11v5h-1v-4h-8l4 2v9h4v-3z"></path>
	</symbol>
	<symbol id="close" viewBox="0 0 19.84 19.84">
		<polygon fill="currentColor" points="11.361,9.924 19.691,1.652 18.25,0.208 9.924,8.476 1.653,0.148 0.208,1.589 8.477,9.915
			0.148,18.184 1.59,19.629 9.914,11.363 18.186,19.691 19.631,18.25 "/>
	</symbol>
	<symbol id="bin" viewBox="0 0 24 24">
		<path d="M0 0h24v24H0V0z" fill="none"/>
		<path fill="currentColor" d="M6 19c0 1.1.9 2 2 2h8c1.1 0 2-.9 2-2V7H6v12zm2.46-7.12l1.41-1.41L12 12.59l2.12-2.12 1.41 1.41L13.41 14l2.12 2.12-1.41 1.41L12 15.41l-2.12 2.12-1.41-1.41L10.59 14l-2.13-2.12zM15.5 4l-1-1h-5l-1 1H5v2h14V4z"/>
		<path d="M0 0h24v24H0z" fill="none"/>
	</symbol>
	<symbol id="file" viewBox="0 0 30 37">
		<path fill="currentColor" d="M0,0v37h30V9.25L20.788,0H0z M28.5,35.5h-27v-34h18.625L28.5,9.894V35.5z"/>
		<polygon fill="currentColor" points="20.79,9.218 20.788,0 19.288,0 19.29,9.968 19.291,9.968 19.291,10.718 30,10.718 30,9.218 "/>
	</symbol>
	<symbol id="file-text" viewBox="0 0 30 37">
		<path fill="currentColor" d="M0,0v37h30V9.25L20.788,0H0z M28.5,35.5h-27v-34h18.625L28.5,9.894V35.5z"/>
		<polygon fill="currentColor" points="20.79,9.218 20.788,0 19.288,0 19.29,9.968 19.291,9.968 19.291,10.718 30,10.718 30,9.218 "/>
		<path d="M24.563,26.751c0,0.413-0.332,0.749-0.74,0.749H6.179c-0.409,0-0.741-0.336-0.741-0.749l0,0
			C5.438,26.336,5.77,26,6.179,26h17.643C24.23,26,24.563,26.336,24.563,26.751L24.563,26.751z"/>
		<path d="M24.563,22.551c0,0.413-0.332,0.749-0.74,0.749H6.179c-0.409,0-0.741-0.336-0.741-0.749l0,0
			c0-0.415,0.332-0.751,0.741-0.751h17.643C24.23,21.8,24.563,22.136,24.563,22.551L24.563,22.551z"/>
		<path d="M24.563,18.35c0,0.413-0.332,0.75-0.74,0.75H6.179c-0.409,0-0.741-0.336-0.741-0.75l0,0
			c0-0.414,0.332-0.75,0.741-0.75h17.643C24.23,17.6,24.563,17.936,24.563,18.35L24.563,18.35z"/>
		<path d="M24.563,14.15c0,0.413-0.332,0.75-0.74,0.75H6.179c-0.409,0-0.741-0.336-0.741-0.75l0,0
			c0-0.414,0.332-0.75,0.741-0.75h17.643C24.23,13.4,24.563,13.736,24.563,14.15L24.563,14.15z"/>
		<path d="M13.822,10.7H6.179c-0.409,0-0.741-0.336-0.741-0.75l0,0c0-0.414,0.332-0.75,0.741-0.75h7.644
			c0.409,0,0.74,0.336,0.74,0.75C14.563,9.951,14.563,10.7,13.822,10.7z"/>
		<path d="M24.563,30.951c0,0.413-0.332,0.749-0.74,0.749H6.179c-0.409,0-0.741-0.336-0.741-0.749l0,0
			c0-0.415,0.332-0.751,0.741-0.751h17.643C24.23,30.2,24.563,30.536,24.563,30.951L24.563,30.951z"/>
	</symbol>
	<symbol id="file-powerpoint" viewBox="0 0 30 37">
		<path fill="currentColor" d="M0,0v37h30V9.25L20.788,0H0z M28.5,35.5h-27v-34h18.625L28.5,9.894V35.5z"/>
		<polygon fill="currentColor" points="20.79,9.218 20.788,0 19.288,0 19.29,9.968 19.291,9.968 19.291,10.718 30,10.718 30,9.218 "/>
		<path d="M6.1,14.25V27h17.791V14.25H6.1z M22.391,25.5H7.6v-9.75h14.791V25.5z"/>
		<path d="M15.75,13.937c0,0.414-0.336,0.75-0.75,0.75l0,0c-0.414,0-0.75-0.336-0.75-0.75v-0.814c0-0.414,0.336-0.75,0.75-0.75l0,0
			c0.414,0,0.75,0.336,0.75,0.75V13.937z"/>
		<path d="M12.614,31.738c-0.113,0.354-0.528,0.56-0.926,0.459l0,0c-0.398-0.102-0.63-0.471-0.517-0.824l1.607-5.025
			c0.113-0.354,0.528-0.561,0.926-0.459l0,0c0.398,0.101,0.63,0.469,0.517,0.823L12.614,31.738z"/>
		<path d="M18.754,31.385c0.111,0.354-0.122,0.723-0.521,0.821l0,0c-0.399,0.101-0.813-0.108-0.924-0.464l-1.578-5.033
			c-0.112-0.355,0.121-0.723,0.521-0.82l0,0c0.397-0.102,0.812,0.107,0.924,0.463L18.754,31.385z"/>
		<polygon points="9.125,23.125 14.042,20.083 15,21.375 17.917,19.375 17.242,18.5 20.917,18.292 19.459,21.834 18.584,20.542
			14.667,23.375 13.667,21.917 10.042,24.375 "/>
	</symbol>
	<symbol id="file-image" viewBox="0 0 30 37">
		<path fill="currentColor" d="M0,0v37h30V9.25L20.788,0H0z M28.5,35.5h-27v-34h18.625L28.5,9.894V35.5z"/>
		<polygon fill="currentColor" points="20.79,9.218 20.788,0 19.288,0 19.29,9.968 19.291,9.968 19.291,10.718 30,10.718 30,9.218 "/>
		<path d="M26.02,27.891l-7.74-8.272l-5.252,4.97l-2.512-2.583L4.06,28.107c-0.92,0.957,0.17,1.447,0.17,1.447h20.608
			C27.188,29.557,26.02,27.891,26.02,27.891z M6.298,28.057l4.157-3.933l2.453,2.657l5.309-5.071l5.887,6.347H6.298z"/>
		<path d="M10.376,12.416c-1.832,0-3.317,1.485-3.317,3.318s1.485,3.317,3.317,3.317c1.833,0,3.318-1.485,3.318-3.317
			S12.209,12.416,10.376,12.416z M10.376,17.67c-1.069,0-1.937-0.868-1.937-1.937s0.868-1.937,1.937-1.937s1.937,0.868,1.937,1.937
			S11.446,17.67,10.376,17.67z"/>
		<path d="M11.189,12.598c0,0.449-0.364,0.813-0.813,0.813l0,0c-0.449,0-0.813-0.364-0.813-0.813v-1.395
			c0-0.449,0.364-0.813,0.813-0.813l0,0c0.449,0,0.813,0.364,0.813,0.813V12.598z"/>
		<path d="M11.19,19.995c0,0.448-0.365,0.812-0.813,0.812l0,0c-0.449,0-0.813-0.363-0.813-0.812V18.6
			c0-0.45,0.364-0.813,0.813-0.813l0,0c0.448,0,0.813,0.363,0.813,0.813V19.995z"/>
		<path d="M13.379,14.929c-0.388,0.225-0.885,0.092-1.11-0.295l0,0c-0.226-0.389-0.095-0.886,0.292-1.111l1.207-0.701
			c0.39-0.226,0.887-0.094,1.113,0.294l0,0c0.225,0.388,0.094,0.885-0.295,1.112L13.379,14.929z"/>
		<path d="M6.984,18.646c-0.387,0.225-0.885,0.091-1.11-0.296l0,0c-0.225-0.388-0.095-0.886,0.293-1.112l1.207-0.701
			c0.389-0.226,0.887-0.092,1.112,0.295l0,0C8.71,17.22,8.58,17.719,8.19,17.945L6.984,18.646z"/>
		<path d="M12.561,17.942c-0.387-0.225-0.518-0.723-0.293-1.11l0,0c0.226-0.389,0.722-0.521,1.111-0.296l1.204,0.702
			c0.39,0.227,0.522,0.725,0.296,1.113l0,0c-0.226,0.387-0.723,0.52-1.112,0.293L12.561,17.942z"/>
		<path d="M6.167,14.226c-0.388-0.225-0.518-0.724-0.292-1.111l0,0c0.225-0.387,0.723-0.521,1.111-0.296l1.206,0.701
			c0.389,0.227,0.519,0.726,0.294,1.113l0,0c-0.225,0.387-0.723,0.521-1.112,0.293L6.167,14.226z"/>
	</symbol>
	<symbol id="file-audio" viewBox="0 0 30 37">
		<path fill="currentColor" d="M0,0v37h30V9.25L20.788,0H0z M28.5,35.5h-27v-34h18.625L28.5,9.894V35.5z"/>
		<polygon fill="currentColor" points="20.79,9.218 20.788,0 19.288,0 19.29,9.968 19.291,9.968 19.291,10.718 30,10.718 30,9.218 "/>
		<path d="M11.592,16.956c-0.414,0-0.751,0.309-0.751,0.689v8.232c-0.508-0.326-1.108-0.521-1.757-0.521
			c-1.801,0-3.261,1.461-3.261,3.261c0,1.801,1.46,3.261,3.261,3.261c1.735,0,3.141-1.361,3.24-3.072c0.006,0,0.014,0.004,0.02,0.004
			V17.646C12.344,17.265,12.007,16.956,11.592,16.956z M9.084,30.459c-1.018,0-1.844-0.825-1.844-1.843
			c0-1.017,0.826-1.843,1.844-1.843c1.017,0,1.842,0.826,1.842,1.843C10.926,29.634,10.101,30.459,9.084,30.459z"/>
		<path d="M21.425,14.123c-0.413,0-0.751,0.309-0.751,0.689v8.232c-0.508-0.326-1.107-0.521-1.757-0.521
			c-1.801,0-3.261,1.459-3.261,3.26s1.46,3.261,3.261,3.261c1.735,0,3.142-1.36,3.24-3.073c0.006,0,0.014,0.006,0.021,0.004V14.813
			C22.178,14.432,21.84,14.123,21.425,14.123z M18.917,27.626c-1.019,0-1.845-0.825-1.845-1.843s0.826-1.842,1.845-1.842
			c1.017,0,1.842,0.824,1.842,1.842S19.934,27.626,18.917,27.626z"/>
		<polyline points="11.592,16.956 21.299,14.123 21.299,15.685 11.986,18.372 11.592,17.153 "/>
	</symbol>
	<symbol id="file-video" viewBox="0 0 30 37">
		<path fill="currentColor" d="M0,0v37h30V9.25L20.788,0H0z M28.5,35.5h-27v-34h18.625L28.5,9.894V35.5z"/>
		<polygon fill="currentColor" points="20.79,9.218 20.788,0 19.288,0 19.29,9.968 19.291,9.968 19.291,10.718 30,10.718 30,9.218 "/>
		<path d="M14.999,12.886c-5.456,0-9.879,4.412-9.879,9.854c0,5.441,4.423,9.854,9.879,9.854s9.88-4.412,9.88-9.854
			C24.879,17.298,20.455,12.886,14.999,12.886z M14.999,31.168c-4.669,0-8.455-3.773-8.455-8.428c0-4.655,3.786-8.43,8.455-8.43
			s8.454,3.774,8.454,8.43C23.453,27.395,19.668,31.168,14.999,31.168z"/>
		<path d="M11.862,17.495v10.386l8.457-5.414L11.862,17.495z M13.399,20.166l4.267,2.334l-4.25,2.5L13.399,20.166z"/>
	</symbol>
	<symbol id="file-archive" viewBox="0 0 30 37">
		<g id="Layer_3">
			<path fill="currentColor" d="M0,0v37h30V9.25L20.788,0H0z M28.5,35.5h-27v-34h18.625L28.5,9.894V35.5z"/>
			<polygon fill="currentColor" points="20.79,9.218 20.788,0 19.288,0 19.29,9.968 19.291,9.968 19.291,10.718 30,10.718 30,9.218 	"/>
		</g>
		<g id="zip3">
			<path d="M10.188,20.555v-1.117h1.625v-1.5h-1.625v-1.5h1.625v-1.5h-1.625v-1.5h1.625v-1.5h-1.625v-1.5h1.625v-1.5h-1.625v-1.5
				h1.625v-1.5h-1.625v-1.5h1.625v-1.5h-1.625v-2.25h-1.5v0.75H7.063v1.5h1.625v1.5H7.063v1.5h1.625v1.5H7.063v1.5h1.625v1.5H7.063
				v1.5h1.625v1.5H7.063v1.5h1.625v1.5H7.063v1.5h1.625v2.631c-1.585,0.353-2.772,1.762-2.772,3.453c0,1.957,1.586,3.543,3.543,3.543
				s3.543-1.586,3.543-3.543C13.002,22.314,11.794,20.892,10.188,20.555z M9.438,26.147c-1.174,0-2.126-0.951-2.126-2.126
				s0.952-2.126,2.126-2.126c1.174,0,2.126,0.951,2.126,2.126S10.612,26.147,9.438,26.147z"/>
		</g>
	</symbol>
	<symbol id="file-word" viewBox="0 0 30 37">
		<g id="Layer_3">
			<path fill="currentColor" d="M0,0v37h30V9.25L20.788,0H0z M28.5,35.5h-27v-34h18.625L28.5,9.894V35.5z"/>
			<polygon fill="currentColor" points="20.79,9.218 20.788,0 19.288,0 19.29,9.968 19.291,9.968 19.291,10.718 30,10.718 30,9.218 	"/>
		</g>
		<g id="Layer_18">
			<path d="M14.968,10.7h-8.83c-0.409,0-0.741-0.336-0.741-0.75l0,0c0-0.414,0.332-0.75,0.741-0.75h8.832
				c0.409,0,0.739,0.336,0.739,0.75C15.709,9.95,15.709,10.7,14.968,10.7z"/>
			<path d="M24.521,30.951c0,0.412-0.332,0.748-0.74,0.748H6.138c-0.409,0-0.741-0.336-0.741-0.748l0,0
				c0-0.416,0.332-0.752,0.741-0.752h17.644C24.189,30.199,24.521,30.535,24.521,30.951L24.521,30.951z"/>
			<path d="M23.781,19.102h-5.225c-0.41,0-0.742-0.336-0.742-0.75l0,0c0-0.414,0.332-0.75,0.742-0.75h5.225
				c0.408,0,0.74,0.336,0.74,0.75C24.521,18.351,24.521,19.102,23.781,19.102z"/>
			<path d="M23.781,23.3h-5.225c-0.41,0-0.742-0.336-0.742-0.75l0,0c0-0.414,0.332-0.75,0.742-0.75h5.225
				c0.408,0,0.74,0.336,0.74,0.75C24.521,22.55,24.521,23.3,23.781,23.3z"/>
			<path d="M23.863,14.9h-5.225c-0.41,0-0.742-0.336-0.742-0.75l0,0c0-0.414,0.332-0.75,0.742-0.75h5.225
				c0.408,0,0.74,0.336,0.74,0.75C24.604,14.15,24.604,14.9,23.863,14.9z"/>
			<path d="M24.563,26.75c0,0.414-0.332,0.75-0.74,0.75H6.178c-0.409,0-0.741-0.336-0.741-0.75l0,0
				c0-0.414,0.332-0.75,0.741-0.75h17.644C24.23,26,24.563,26.336,24.563,26.75L24.563,26.75z"/>
			<path d="M5.519,13.55v10.138h10.19V13.55H5.519z M14.208,22.188H7.019V15.05h7.189V22.188z"/>
		</g>
	</symbol>
	<symbol id="file-excel" viewBox="0 0 30 37">
		<path fill="currentColor" d="M0,0v37h30V9.25L20.788,0H0z M28.5,35.5h-27v-34h18.625L28.5,9.894V35.5z"/>
		<polygon fill="currentColor" points="20.79,9.218 20.788,0 19.288,0 19.29,9.968 19.291,9.968 19.291,10.718 30,10.718 30,9.218 "/>
		<path d="M24.563,28.301c0,0.413-0.332,0.749-0.74,0.749H6.179c-0.409,0-0.741-0.336-0.741-0.749l0,0
			c0-0.415,0.332-0.751,0.741-0.751h17.643C24.23,27.55,24.563,27.886,24.563,28.301L24.563,28.301z"/>
		<path d="M24.563,24.102c0,0.412-0.332,0.748-0.74,0.748H6.179c-0.409,0-0.741-0.336-0.741-0.748l0,0
			c0-0.416,0.332-0.752,0.741-0.752h17.643C24.23,23.35,24.563,23.686,24.563,24.102L24.563,24.102z"/>
		<path d="M24.563,19.898c0,0.414-0.332,0.75-0.74,0.75H6.179c-0.409,0-0.741-0.336-0.741-0.75l0,0
			c0-0.412,0.332-0.748,0.741-0.748h17.643C24.23,19.15,24.563,19.486,24.563,19.898L24.563,19.898z"/>
		<path d="M24.563,15.7c0,0.413-0.332,0.75-0.74,0.75H6.179c-0.409,0-0.741-0.337-0.741-0.75l0,0
			c0-0.414,0.332-0.75,0.741-0.75h17.643C24.23,14.95,24.563,15.286,24.563,15.7L24.563,15.7z"/>
		<rect x="5.438" y="14.95" width="1.5" height="14.1"/>
		<rect x="23.145" y="14.95" width="1.5" height="14.1"/>
		<rect x="10.27" y="14.95" width="1.5" height="14.1"/>
	</symbol>
	<symbol id="file-pdf" viewBox="0 0 30 37">
		<path fill="currentColor" d="M0,0v37h30V9.25L20.788,0H0z M28.5,35.5h-27v-34h18.625L28.5,9.894V35.5z"/>
		<polygon fill="currentColor" points="20.79,9.218 20.788,0 19.288,0 19.29,9.968 19.291,9.968 19.291,10.718 30,10.718 30,9.218 "/>
		<path d="M18.063,23.896c0,0-2.504-2.646-3.063-4.213c0,0,2.954-7.301-0.611-7.865c0,0-3.403-0.239-0.81,7.865
			c0,0-0.918,3.401-2.863,5.778c0,0-7.32,2.851-5.023,5.726c0,0,1.944,1.783,5.726-4.268c0,0,2.49-1.347,5.894-1.454
			c0,0,4.803,5.938,7.179,2.534C24.488,28,26.488,23.68,18.063,23.896z M6.75,30c-0.036-1.008,2.418-2.323,2.418-2.323
			C7.129,30.542,6.75,30,6.75,30z M14.458,13.354c0.938-0.042-0.178,3.592-0.25,4.275C14.208,17.629,13.339,13.404,14.458,13.354z
			M12.927,24.663c0,0,1.148-2.147,1.501-3.12c0,0,1.462,2.275,1.821,2.563C16.249,24.105,14.884,24.173,12.927,24.663z
			M23.375,27.063c-0.582,1.901-4.38-1.836-4.061-1.818C19.314,25.243,23.87,25.445,23.375,27.063z"/>
	</symbol>
	<symbol id="info" viewBox="0 0 24 24">
		<path fill="currentColor" d="M12 0c-6.627 0-12 5.373-12 12s5.373 12 12 12 12-5.373 12-12-5.373-12-12-12zm-2.033 16.01c.564-1.789 1.632-3.932 1.821-4.474.273-.787-.211-1.136-1.74.209l-.34-.64c1.744-1.897 5.335-2.326 4.113.613-.763 1.835-1.309 3.074-1.621 4.03-.455 1.393.694.828 1.819-.211.153.25.203.331.356.619-2.498 2.378-5.271 2.588-4.408-.146zm4.742-8.169c-.532.453-1.32.443-1.761-.022-.441-.465-.367-1.208.164-1.661.532-.453 1.32-.442 1.761.022.439.466.367 1.209-.164 1.661z"/>
	</symbol>
	<symbol id="error" viewBox="0 0 24 24">
		<path fill="currentColor" d="M12 0c-6.627 0-12 5.373-12 12s5.373 12 12 12 12-5.373 12-12-5.373-12-12-12zm-1.351 6.493c-.08-.801.55-1.493 1.351-1.493s1.431.692 1.351 1.493l-.801 8.01c-.029.282-.266.497-.55.497s-.521-.215-.55-.498l-.801-8.009zm1.351 12.757c-.69 0-1.25-.56-1.25-1.25s.56-1.25 1.25-1.25 1.25.56 1.25 1.25-.56 1.25-1.25 1.25z"/>
	</symbol>
	<symbol id="alert" viewBox="0 0 24 24">
		<path fill="currentColor" d="M12 1l-12 22h24l-12-22zm-1 8h2v7h-2v-7zm1 11.25c-.69 0-1.25-.56-1.25-1.25s.56-1.25 1.25-1.25 1.25.56 1.25 1.25-.56 1.25-1.25 1.25z"/>
	</symbol>
	<symbol id="success" viewBox="0 0 24 24">
		<path fill="currentColor" d="M12 0c-6.627 0-12 5.373-12 12s5.373 12 12 12 12-5.373 12-12-5.373-12-12-12zm-1.25 16.518l-4.5-4.319 1.396-1.435 3.078 2.937 6.105-6.218 1.421 1.409-7.5 7.626z"/>
	</symbol>
	<symbol id="question" viewBox="0 0 24 24">
		<path fill="currentColor" d="M12 0c-6.627 0-12 5.373-12 12s5.373 12 12 12 12-5.373 12-12-5.373-12-12-12zm0 18.25c-.69 0-1.25-.56-1.25-1.25s.56-1.25 1.25-1.25c.691 0 1.25.56 1.25 1.25s-.559 1.25-1.25 1.25zm1.961-5.928c-.904.975-.947 1.514-.935 2.178h-2.005c-.007-1.475.02-2.125 1.431-3.468.573-.544 1.025-.975.962-1.821-.058-.805-.73-1.226-1.365-1.226-.709 0-1.538.527-1.538 2.013h-2.01c0-2.4 1.409-3.95 3.59-3.95 1.036 0 1.942.339 2.55.955.57.578.865 1.372.854 2.298-.016 1.383-.857 2.291-1.534 3.021z"/>
	</symbol>
	<symbol id="refresh" viewBox="0 0 16 16">
		<path fill="currentColor" d="M13.901 2.599c-1.463-1.597-3.565-2.599-5.901-2.599-4.418 0-8 3.582-8 8h1.5c0-3.59 2.91-6.5 6.5-6.5 1.922 0 3.649 0.835 4.839 2.161l-2.339 2.339h5.5v-5.5l-2.099 2.099z"></path>
		<path fill="currentColor" d="M14.5 8c0 3.59-2.91 6.5-6.5 6.5-1.922 0-3.649-0.835-4.839-2.161l2.339-2.339h-5.5v5.5l2.099-2.099c1.463 1.597 3.565 2.599 5.901 2.599 4.418 0 8-3.582 8-8h-1.5z"></path>
	</symbol>
	<symbol id="asterisk" viewBox="0 0 544.68 544.68">
		<path fill="currentColor" d="M497.947,225.607H385.162l79.75-79.75c18.249-18.25,18.249-47.84,0-66.09c-18.25-18.25-47.841-18.25-66.09,0l-79.75,79.75
			V46.732C319.072,20.924,298.147,0,272.34,0c-25.808,0-46.732,20.924-46.732,46.732v112.785l-79.75-79.75
			c-18.25-18.25-47.84-18.25-66.09,0c-18.25,18.25-18.25,47.84,0,66.09l79.75,79.75H46.732C20.924,225.607,0,246.532,0,272.34
			c0,25.808,20.924,46.732,46.732,46.732h112.786l-79.75,79.75c-18.25,18.249-18.25,47.84,0,66.09c18.25,18.25,47.84,18.25,66.09,0
			l79.75-79.75v112.785c0,25.809,20.924,46.732,46.732,46.732c25.808,0,46.732-20.924,46.732-46.732V385.162l79.75,79.75
			c18.249,18.249,47.84,18.249,66.09,0c18.25-18.25,18.25-47.841,0-66.09l-79.75-79.75h112.785
			c25.809,0,46.732-20.925,46.732-46.732C544.68,246.532,523.756,225.607,497.947,225.607z"/>
	</symbol>
	<symbol id="spinner" viewBox="0 0 100 100">
		<circle cx="50" cy="50" fill="none" stroke-linecap="round" r="40" stroke-width="3" stroke="currentColor" stroke-dasharray="62.83185307179586 62.83185307179586">
		</circle>
	</symbol>
	<symbol id="check" viewBox="0 0 16 16">
		<path fill="currentColor" d="M13.5 2l-7.5 7.5-3.5-3.5-2.5 2.5 6 6 10-10z"></path>
	</symbol>
	<symbol id="launch" viewBox="0 0 24 24">
		<path d="M0 0h24v24H0z" fill="none"/>
		<path fill="currentColor" d="M19 19H5V5h7V3H5c-1.11 0-2 .9-2 2v14c0 1.1.89 2 2 2h14c1.1 0 2-.9 2-2v-7h-2v7zM14 3v2h3.59l-9.83 9.83 1.41 1.41L19 6.41V10h2V3h-7z"/>
	</symbol>
	<symbol id="user" viewBox="0 0 25.51 25.51">
		<path fill="currentColor" d="M10.194,21.038c-0.955-1.527-0.74-3.604-0.74-3.604c-0.358,0.215-2.195,0.691-2.195,0.691
			c-2.196,0.431-3.15,1.503-3.15,1.503l-0.334,0.502c0.164,0.245,0.342,0.476,0.532,0.692c0,0,0.775-1.069,1.838-1.53
			c0,0,2.339-0.496,2.517-0.709c0,0-0.068,3.658,3.682,5.605c0.249,0.018,0.403,0.021,0.403,0.021v-0.775
			C11.195,22.708,11.062,22.426,10.194,21.038z"/>
		<path fill="currentColor" d="M16.916,18.584c0.178,0.213,2.517,0.709,2.517,0.709c0.922,0.399,1.625,1.254,1.797,1.475
			c0.173-0.201,0.339-0.41,0.489-0.637l-0.333-0.502c0,0-0.956-1.072-3.149-1.503c0,0-1.837-0.477-2.197-0.691
			c0,0,0.217,2.076-0.737,3.604c-0.867,1.388-1,1.67-2.554,2.397v0.775c0,0,0.19-0.005,0.499-0.029
			C16.984,22.233,16.916,18.584,16.916,18.584z"/>
		<path fill="currentColor" d="M11.616,18.63l0.526-0.612h1.305l0.483,0.612c0,0-0.294,0.526-0.757,0.769l0.757,2.037
			c0,0-0.694,0.898-1.157,1.097c0,0-0.863-0.505-1.157-1.161l0.736-1.951C12.353,19.42,11.785,18.872,11.616,18.63z"/>
		<path fill="currentColor" d="M16.878,10.708c0,0,0.516-2.22-0.298-3.667c-0.813-1.447-2.638-1.904-3.847-1.904
			c-1.21,0-3.232,0.575-3.926,1.983c-0.694,1.408-0.238,3.589-0.238,3.589s-0.892-0.1-0.496,1.526c0,0,0.198,0.536,0.635,1.011
			c0,0,1.229,3.49,4.025,3.569c2.796,0.08,4.064-3.609,4.064-3.609s0.477-0.555,0.615-0.991
			C17.413,12.216,17.83,10.588,16.878,10.708z M16.326,12.755c0,0-1.075,3.534-3.593,3.49c-2.518-0.044-3.107-2.798-3.549-3.372
			c0,0-0.263-0.16-0.442-0.457c-0.26-0.433-0.397-1.325,0.133-1.414c0,0,0.248-0.112,0.582,0.884
			c-0.111-0.323-0.447-1.433-0.273-2.636c0,0,0.53-1.34,1.752-1.428c0,0,1.826,2.091,5.404,1.914c0,0-0.151,1.317-0.325,1.972
			c0.117-0.32,0.348-0.806,0.649-0.705C17.106,11.15,16.93,12.211,16.326,12.755z"/>
		<path fill="currentColor" d="M12.825,25.307c-6.919,0-12.623-5.704-12.623-12.622c0-6.919,5.704-12.623,12.623-12.623
			c6.918,0,12.622,5.704,12.622,12.623C25.447,19.603,19.743,25.307,12.825,25.307z M12.825,1.563
			c-6.135,0-11.122,4.986-11.122,11.122c0,6.137,4.986,11.121,11.122,11.121c6.137,0,11.121-4.984,11.121-11.121
			C23.946,6.549,18.962,1.563,12.825,1.563z"/>
	</symbol>
	<symbol id="user2" viewBox="0 0 25.51 25.51">
		<path fill="currentColor" d="M4.134,19.629c0,0,0.955-1.072,3.15-1.503c0,0,1.837-0.477,2.195-0.691c0,0-0.215,2.076,0.74,3.604
			c0.867,1.388,1,1.67,2.553,2.397v0.775c0,0-6.323-0.118-8.972-4.08L4.134,19.629z"/>
		<path fill="currentColor" d="M21.411,19.629c0,0-0.956-1.072-3.149-1.503c0,0-1.837-0.477-2.197-0.691c0,0,0.218,2.076-0.737,3.604
			c-0.867,1.388-1,1.67-2.554,2.397v0.775c0,0,6.324-0.118,8.971-4.08L21.411,19.629z"/>
		<path fill="currentColor" d="M11.575,18.631l0.525-0.613h1.306l0.483,0.613c0,0-0.294,0.525-0.757,0.768l0.757,2.038
			c0,0-0.694,0.898-1.157,1.096c0,0-0.862-0.505-1.157-1.161l0.736-1.95C12.312,19.421,11.743,18.872,11.575,18.631z"/>
		<path fill="currentColor" d="M8.59,10.709c0,0-0.893-0.1-0.496,1.526c0,0,0.198,0.536,0.634,1.011c0,0,1.229,3.49,4.025,3.569
			c2.796,0.08,4.065-3.609,4.065-3.609s0.476-0.555,0.615-0.991c0,0,0.417-1.628-0.536-1.508c0,0,0.517-2.22-0.297-3.667
			c-0.813-1.447-2.638-1.904-3.847-1.904S9.522,5.712,8.829,7.12C8.134,8.528,8.59,10.709,8.59,10.709z"/>
		<path fill="currentColor" d="M12.825,25.307c-6.919,0-12.623-5.704-12.623-12.622c0-6.919,5.704-12.623,12.623-12.623
			c6.918,0,12.622,5.704,12.622,12.623C25.447,19.603,19.743,25.307,12.825,25.307z M12.825,1.563
			c-6.135,0-11.122,4.986-11.122,11.122c0,6.137,4.986,11.121,11.122,11.121c6.137,0,11.121-4.984,11.121-11.121
			C23.946,6.549,18.962,1.563,12.825,1.563z"/>
	</symbol>
	<symbol id="cart" viewBox="0 0 24 24">
		<path fill="currentColor" d="M4.558 7l4.701-4.702c.199-.198.46-.298.721-.298.613 0 1.02.505 1.02 1.029 0 .25-.092.504-.299.711l-3.26 3.26h-2.883zm12.001 0h2.883l-4.702-4.702c-.198-.198-.459-.298-.72-.298-.613 0-1.02.505-1.02 1.029 0 .25.092.504.299.711l3.26 3.26zm7.441 2v2h-.642c-.534 0-1.022.305-1.257.786l-4.101 10.214h-12l-4.101-10.216c-.234-.48-.722-.784-1.256-.784h-.643v-2h24zm-15 4c0-.552-.448-1-1-1s-1 .448-1 1v5c0 .552.448 1 1 1s1-.448 1-1v-5zm4 0c0-.552-.448-1-1-1s-1 .448-1 1v5c0 .552.448 1 1 1s1-.448 1-1v-5zm4 0c0-.552-.447-1-1-1s-1 .448-1 1v5c0 .552.447 1 1 1s1-.448 1-1v-5z"/>
	</symbol>
	<symbol id="search" viewBox="0 0 24 24">
		<path fill="currentColor" d="M21.172 24l-7.387-7.387c-1.388.874-3.024 1.387-4.785 1.387-4.971 0-9-4.029-9-9s4.029-9 9-9 9 4.029 9 9c0 1.761-.514 3.398-1.387 4.785l7.387 7.387-2.828 2.828zm-12.172-8c3.859 0 7-3.14 7-7s-3.141-7-7-7-7 3.14-7 7 3.141 7 7 7z"/>
	</symbol>
	<symbol id="facebook" viewBox="0 0 16 16">
		<path fill="currentColor" d="M9.5 3h2.5v-3h-2.5c-1.93 0-3.5 1.57-3.5 3.5v1.5h-2v3h2v8h3v-8h2.5l0.5-3h-3v-1.5c0-0.271 0.229-0.5 0.5-0.5z"></path>
	</symbol>
	<symbol id="vk" viewBox="0 0 24 24">
		<path fill="currentColor" d="M13.162 18.994c.609 0 .858-.406.851-.915-.031-1.917.714-2.949 2.059-1.604 1.488 1.488 1.796 2.519 3.603 2.519h3.2c.808 0 1.126-.26 1.126-.668 0-.863-1.421-2.386-2.625-3.504-1.686-1.565-1.765-1.602-.313-3.486 1.801-2.339 4.157-5.336 2.073-5.336h-3.981c-.772 0-.828.435-1.103 1.083-.995 2.347-2.886 5.387-3.604 4.922-.751-.485-.407-2.406-.35-5.261.015-.754.011-1.271-1.141-1.539-.629-.145-1.241-.205-1.809-.205-2.273 0-3.841.953-2.95 1.119 1.571.293 1.42 3.692 1.054 5.16-.638 2.556-3.036-2.024-4.035-4.305-.241-.548-.315-.974-1.175-.974h-3.255c-.492 0-.787.16-.787.516 0 .602 2.96 6.72 5.786 9.77 2.756 2.975 5.48 2.708 7.376 2.708z"/>
	</symbol>
	<symbol id="instagram" viewBox="0 0 16 16">
		<path fill="currentColor" d="M14.5 0h-13c-0.825 0-1.5 0.675-1.5 1.5v13c0 0.825 0.675 1.5 1.5 1.5h13c0.825 0 1.5-0.675 1.5-1.5v-13c0-0.825-0.675-1.5-1.5-1.5zM11 2.5c0-0.275 0.225-0.5 0.5-0.5h2c0.275 0 0.5 0.225 0.5 0.5v2c0 0.275-0.225 0.5-0.5 0.5h-2c-0.275 0-0.5-0.225-0.5-0.5v-2zM8 5c1.656 0 3 1.344 3 3s-1.344 3-3 3c-1.656 0-3-1.344-3-3s1.344-3 3-3zM14 13.5v0c0 0.275-0.225 0.5-0.5 0.5h-11c-0.275 0-0.5-0.225-0.5-0.5v0-6.5h1.1c-0.066 0.322-0.1 0.656-0.1 1 0 2.762 2.237 5 5 5s5-2.238 5-5c0-0.344-0.034-0.678-0.1-1h1.1v6.5z"></path>
	</symbol>
	<symbol id="odnoklassniki" viewBox="0 0 95.481 95.481">
		<path fill="currentColor" d="M43.041,67.254c-7.402-0.772-14.076-2.595-19.79-7.064c-0.709-0.556-1.441-1.092-2.088-1.713
			c-2.501-2.402-2.753-5.153-0.774-7.988c1.693-2.426,4.535-3.075,7.489-1.682c0.572,0.27,1.117,0.607,1.639,0.969
			c10.649,7.317,25.278,7.519,35.967,0.329c1.059-0.812,2.191-1.474,3.503-1.812c2.551-0.655,4.93,0.282,6.299,2.514
			c1.564,2.549,1.544,5.037-0.383,7.016c-2.956,3.034-6.511,5.229-10.461,6.761c-3.735,1.448-7.826,2.177-11.875,2.661
			c0.611,0.665,0.899,0.992,1.281,1.376c5.498,5.524,11.02,11.025,16.5,16.566c1.867,1.888,2.257,4.229,1.229,6.425
			c-1.124,2.4-3.64,3.979-6.107,3.81c-1.563-0.108-2.782-0.886-3.865-1.977c-4.149-4.175-8.376-8.273-12.441-12.527
			c-1.183-1.237-1.752-1.003-2.796,0.071c-4.174,4.297-8.416,8.528-12.683,12.735c-1.916,1.889-4.196,2.229-6.418,1.15
			c-2.362-1.145-3.865-3.556-3.749-5.979c0.08-1.639,0.886-2.891,2.011-4.014c5.441-5.433,10.867-10.88,16.295-16.322
			C42.183,68.197,42.518,67.813,43.041,67.254z"/>
		<path fill="currentColor" d="M47.55,48.329c-13.205-0.045-24.033-10.992-23.956-24.218C23.67,10.739,34.505-0.037,47.84,0
			c13.362,0.036,24.087,10.967,24.02,24.478C71.792,37.677,60.889,48.375,47.55,48.329z M59.551,24.143
			c-0.023-6.567-5.253-11.795-11.807-11.801c-6.609-0.007-11.886,5.316-11.835,11.943c0.049,6.542,5.324,11.733,11.896,11.709
			C54.357,35.971,59.573,30.709,59.551,24.143z"/>
	</symbol>
	<symbol id="twitter" viewBox="0 0 16 16">
		<path fill="currentColor" d="M16 3.538c-0.588 0.263-1.222 0.438-1.884 0.516 0.678-0.406 1.197-1.050 1.444-1.816-0.634 0.375-1.338 0.65-2.084 0.797-0.6-0.638-1.453-1.034-2.397-1.034-1.813 0-3.281 1.469-3.281 3.281 0 0.256 0.028 0.506 0.084 0.747-2.728-0.138-5.147-1.444-6.766-3.431-0.281 0.484-0.444 1.050-0.444 1.65 0 1.138 0.578 2.144 1.459 2.731-0.538-0.016-1.044-0.166-1.488-0.409 0 0.013 0 0.028 0 0.041 0 1.591 1.131 2.919 2.634 3.219-0.275 0.075-0.566 0.116-0.866 0.116-0.212 0-0.416-0.022-0.619-0.059 0.419 1.303 1.631 2.253 3.066 2.281-1.125 0.881-2.538 1.406-4.078 1.406-0.266 0-0.525-0.016-0.784-0.047 1.456 0.934 3.181 1.475 5.034 1.475 6.037 0 9.341-5.003 9.341-9.341 0-0.144-0.003-0.284-0.009-0.425 0.641-0.459 1.197-1.038 1.637-1.697z"></path>
	</symbol>
	<symbol id="youtube" viewBox="0 0 24 24">
		<path fill="currentColor" d="M4.652 0h1.44l.988 3.702.916-3.702h1.454l-1.665 5.505v3.757h-1.431v-3.757l-1.702-5.505zm6.594 2.373c-1.119 0-1.861.74-1.861 1.835v3.349c0 1.204.629 1.831 1.861 1.831 1.022 0 1.826-.683 1.826-1.831v-3.349c0-1.069-.797-1.835-1.826-1.835zm.531 5.127c0 .372-.19.646-.532.646-.351 0-.554-.287-.554-.646v-3.179c0-.374.172-.651.529-.651.39 0 .557.269.557.651v3.179zm4.729-5.07v5.186c-.155.194-.5.512-.747.512-.271 0-.338-.186-.338-.46v-5.238h-1.27v5.71c0 .675.206 1.22.887 1.22.384 0 .918-.2 1.468-.853v.754h1.27v-6.831h-1.27zm2.203 13.858c-.448 0-.541.315-.541.763v.659h1.069v-.66c.001-.44-.092-.762-.528-.762zm-4.703.04c-.084.043-.167.109-.25.198v4.055c.099.106.194.182.287.229.197.1.485.107.619-.067.07-.092.105-.241.105-.449v-3.359c0-.22-.043-.386-.129-.5-.147-.193-.42-.214-.632-.107zm4.827-5.195c-2.604-.177-11.066-.177-13.666 0-2.814.192-3.146 1.892-3.167 6.367.021 4.467.35 6.175 3.167 6.367 2.6.177 11.062.177 13.666 0 2.814-.192 3.146-1.893 3.167-6.367-.021-4.467-.35-6.175-3.167-6.367zm-12.324 10.686h-1.363v-7.54h-1.41v-1.28h4.182v1.28h-1.41v7.54zm4.846 0h-1.21v-.718c-.223.265-.455.467-.696.605-.652.374-1.547.365-1.547-.955v-5.438h1.209v4.988c0 .262.063.438.322.438.236 0 .564-.303.711-.487v-4.939h1.21v6.506zm4.657-1.348c0 .805-.301 1.431-1.106 1.431-.443 0-.812-.162-1.149-.583v.5h-1.221v-8.82h1.221v2.84c.273-.333.644-.608 1.076-.608.886 0 1.18.749 1.18 1.631v3.609zm4.471-1.752h-2.314v1.228c0 .488.042.91.528.91.511 0 .541-.344.541-.91v-.452h1.245v.489c0 1.253-.538 2.013-1.813 2.013-1.155 0-1.746-.842-1.746-2.013v-2.921c0-1.129.746-1.914 1.837-1.914 1.161 0 1.721.738 1.721 1.914v1.656z"/>
	</symbol>
	<symbol id="youtube-play" viewBox="0 0 24 24">
		<path fill="currentColor" d="M19.615 3.184c-3.604-.246-11.631-.245-15.23 0-3.897.266-4.356 2.62-4.385 8.816.029 6.185.484 8.549 4.385 8.816 3.6.245 11.626.246 15.23 0 3.897-.266 4.356-2.62 4.385-8.816-.029-6.185-.484-8.549-4.385-8.816zm-10.615 12.816v-8l8 3.993-8 4.007z"/>
	</symbol>
	<symbol id="arrow-right" viewBox="0 0 24 24">
		<path fill="currentColor" d="M5 3l3.057-3 11.943 12-11.943 12-3.057-3 9-9z"/>
	</symbol>
	<symbol id="arrow-left" viewBox="0 0 24 24">
		<path fill="currentColor" d="M16.67 0l2.83 2.829-9.339 9.175 9.339 9.167-2.83 2.829-12.17-11.996z"/>
	</symbol>
	<symbol id="arrow-top" viewBox="0 0 24 24">
		<path fill="currentColor" d="M0 16.67l2.829 2.83 9.175-9.339 9.167 9.339 2.829-2.83-11.996-12.17z"/>
	</symbol>
	<symbol id="arrow-bottom" viewBox="0 0 24 24">
		<path fill="currentColor" d="M0 7.33l2.829-2.83 9.175 9.339 9.167-9.339 2.829 2.83-11.996 12.17z"/>
	</symbol>
	<symbol id="arrow-menu" viewBox="0 0 21 13">
		<polygon fill-rule="evenodd" clip-rule="evenodd" fill="currentColor" points="0.1,2.138 1.567,0.607 11.966,11.042 10.5,12.571 "/>
		<polygon fill-rule="evenodd" clip-rule="evenodd" fill="currentColor" points="21,2.048 19.533,0.518 9.135,10.952 10.601,12.481 "/>
	</symbol>
	<symbol id="arrow-slider" viewBox="-0.013 -0.048 40 39">
		<ellipse fill-opacity="0" cx="19.987" cy="19.452" rx="17.292" ry="16.861"/>
		<path d="M20,0C8.954,0,0,8.73,0,19.5C0,30.271,8.954,39,20,39c11.045,0,20-8.729,20-19.5C40,8.73,31.045,0,20,0z
			M20,35.054c-8.836,0-16-6.985-16-15.602s7.164-15.6,16-15.6s16,6.984,16,15.6C36,28.067,28.836,35.054,20,35.054z"/>
		<ellipse fill="currentColor" cx="19.999" cy="19.452" rx="12.898" ry="12.576"/>
		<polygon fill="#fff" points="17.956,11.365 26.691,19.268 18.49,27.944 15.104,25.212 20.897,19.296 15.282,14.337 "/>
	</symbol>
	<symbol id="plus" viewBox="0 0 24 24">
		<path fill="currentColor" d="M24 10h-10v-10h-3v10h-10v3h10v10h3v-10h10z"/>
	</symbol>
	<symbol id="gallery-right" viewBox="0 0 55 55">
		<polygon fill="currentColor" points="13.277,2.444 14.72,0.974 40.217,25.978 40.226,25.97 41.693,27.415 41.689,27.421 41.693,27.425
			40.25,28.895 40.242,28.887 15.168,54.315 13.701,52.869 38.771,27.443 "/>
	</symbol>
	<symbol id="gallery-left" viewBox="0 0 55 55">
		<polygon fill="currentColor" points="42.521,2.444 41.079,0.974 15.581,25.978 15.573,25.97 14.105,27.415 14.109,27.421 14.105,27.425
			15.548,28.895 15.556,28.887 40.63,54.315 42.098,52.869 17.027,27.443 "/>
	</symbol>
	<symbol id="gallery-close" viewBox="0 0 55 55">
		<polygon fill="currentColor" points="43.742,11.123 28.377,26.384 13.115,11.017 11.668,12.455 26.929,27.822 11.563,43.082 13,44.531
			28.366,29.27 43.628,44.637 45.075,43.198 29.814,27.832 45.182,12.572 "/>
	</symbol>
	<symbol id="location" viewBox="0 0 24 24">
		<path fill="currentColor" d="M12 0c-4.198 0-8 3.403-8 7.602 0 4.198 3.469 9.21 8 16.398 4.531-7.188 8-12.2 8-16.398 0-4.199-3.801-7.602-8-7.602zm0 11c-1.657 0-3-1.343-3-3s1.343-3 3-3 3 1.343 3 3-1.343 3-3 3z"/>
	</symbol>
	<symbol id="phone" viewBox="0 0 24 24">
		<path fill="currentColor" d="M20 22.621l-3.521-6.795c-.008.004-1.974.97-2.064 1.011-2.24 1.086-6.799-7.82-4.609-8.994l2.083-1.026-3.493-6.817-2.106 1.039c-7.202 3.755 4.233 25.982 11.6 22.615.121-.055 2.102-1.029 2.11-1.033z"/>
	</symbol>
	<symbol id="calendar" viewBox="0 0 24 24">
		<path fill="currentColor" d="M20 20h-4v-4h4v4zm-6-10h-4v4h4v-4zm6 0h-4v4h4v-4zm-12 6h-4v4h4v-4zm6 0h-4v4h4v-4zm-6-6h-4v4h4v-4zm16-8v22h-24v-22h3v1c0 1.103.897 2 2 2s2-.897 2-2v-1h10v1c0 1.103.897 2 2 2s2-.897 2-2v-1h3zm-2 6h-20v14h20v-14zm-2-7c0-.552-.447-1-1-1s-1 .448-1 1v2c0 .552.447 1 1 1s1-.448 1-1v-2zm-14 2c0 .552-.447 1-1 1s-1-.448-1-1v-2c0-.552.447-1 1-1s1 .448 1 1v2z"/>
	</symbol>
	<symbol id="zoom-in" viewBox="0 0 16 16">
		<path fill="currentColor" d="M15.504 13.616l-3.79-3.223c-0.392-0.353-0.811-0.514-1.149-0.499 0.895-1.048 1.435-2.407 1.435-3.893 0-3.314-2.686-6-6-6s-6 2.686-6 6 2.686 6 6 6c1.486 0 2.845-0.54 3.893-1.435-0.016 0.338 0.146 0.757 0.499 1.149l3.223 3.79c0.552 0.613 1.453 0.665 2.003 0.115s0.498-1.452-0.115-2.003zM6 10c-2.209 0-4-1.791-4-4s1.791-4 4-4 4 1.791 4 4-1.791 4-4 4zM7 3h-2v2h-2v2h2v2h2v-2h2v-2h-2z"></path>
	</symbol>
	<symbol id="chart" viewBox="0 0 16 16">
		<path fill="currentColor" d="M0 13h16v2h-16zM2 9h2v3h-2zM5 5h2v7h-2zM8 8h2v4h-2zM11 2h2v10h-2z"></path>
	</symbol>
	<symbol id="bookmark" viewBox="0 0 16 16">
		<path fill="currentColor" d="M3 0v16l5-5 5 5v-16z"></path>
	</symbol>
	<symbol id="view-island" viewBox="0 0 24 24" >
		<path fill="currentColor" d="M3 9h4V5H3v4zm0 5h4v-4H3v4zm5 0h4v-4H8v4zm5 0h4v-4h-4v4zM8 9h4V5H8v4zm5-4v4h4V5h-4zm5 9h4v-4h-4v4zM3 19h4v-4H3v4zm5 0h4v-4H8v4zm5 0h4v-4h-4v4zm5 0h4v-4h-4v4zm0-14v4h4V5h-4z"/>
		<path d="M0 0h24v24H0z" fill="none"/>
	</symbol>
	<symbol id="view-widecard" viewBox="0 0 24 24">
		<path fill="currentColor" d="M4 14h4v-4H4v4zm0 5h4v-4H4v4zM4 9h4V5H4v4zm5 5h12v-4H9v4zm0 5h12v-4H9v4zM9 5v4h12V5H9z"/>
		<path d="M0 0h24v24H0z" fill="none"/>
	</symbol>
	<symbol id="view-table" viewBox="0 0 24 24">
		<path fill="currentColor" d="M4 15h16v-2H4v2zm0 4h16v-2H4v2zm0-8h16V9H4v2zm0-6v2h16V5H4z"/>
		<path d="M0 0h24v24H0V0z" fill="none"/>
	</symbol>
	<symbol id="label" viewBox="0 0 16 16">
		<path fill="currentColor" d="M15.25 0h-6c-0.412 0-0.989 0.239-1.28 0.53l-7.439 7.439c-0.292 0.292-0.292 0.769 0 1.061l6.439 6.439c0.292 0.292 0.769 0.292 1.061 0l7.439-7.439c0.292-0.292 0.53-0.868 0.53-1.28v-6c0-0.412-0.338-0.75-0.75-0.75zM11.5 6c-0.828 0-1.5-0.672-1.5-1.5s0.672-1.5 1.5-1.5 1.5 0.672 1.5 1.5-0.672 1.5-1.5 1.5z"></path>
	</symbol>
	<symbol id="pencil" viewBox="0 0 16 16">
		<path fill="currentColor" d="M6 10l2-1 7-7-1-1-7 7-1 2zM4.52 13.548c-0.494-1.043-1.026-1.574-2.069-2.069l1.548-4.262 2-1.217 6-6h-3l-6 6-3 10 10-3 6-6v-3l-6 6-1.217 2z"></path>
	</symbol>
	<symbol id="advice" viewBox="0 0 54 54">
		<path fill="currentColor" d="M27,8c-9.374,0-17,7.626-17,17c0,7.112,4.391,13.412,11,15.9V50c0,0.553,0.447,1,1,1h1v2c0,0.553,0.447,1,1,1h6
			c0.553,0,1-0.447,1-1v-2h1c0.553,0,1-0.447,1-1v-9.1c6.609-2.488,11-8.788,11-15.9C44,15.626,36.374,8,27,8z M30,49
			c-0.553,0-1,0.447-1,1v2h-4v-2c0-0.553-0.447-1-1-1h-1v-5h8v5H30z M31.688,39.242C31.277,39.377,31,39.761,31,40.192V42h-8v-1.808
			c0-0.432-0.277-0.815-0.688-0.95C16.145,37.214,12,31.49,12,25c0-8.271,6.729-15,15-15s15,6.729,15,15
			C42,31.49,37.855,37.214,31.688,39.242z"/>
		<path fill="currentColor" d="M27,6c0.553,0,1-0.447,1-1V1c0-0.553-0.447-1-1-1s-1,0.447-1,1v4C26,5.553,26.447,6,27,6z"/>
		<path fill="currentColor" d="M51,24h-4c-0.553,0-1,0.447-1,1s0.447,1,1,1h4c0.553,0,1-0.447,1-1S51.553,24,51,24z"/>
		<path fill="currentColor" d="M7,24H3c-0.553,0-1,0.447-1,1s0.447,1,1,1h4c0.553,0,1-0.447,1-1S7.553,24,7,24z"/>
		<path fill="currentColor" d="M43.264,7.322l-2.828,2.828c-0.391,0.391-0.391,1.023,0,1.414c0.195,0.195,0.451,0.293,0.707,0.293
			s0.512-0.098,0.707-0.293l2.828-2.828c0.391-0.391,0.391-1.023,0-1.414S43.654,6.932,43.264,7.322z"/>
		<path fill="currentColor" d="M12.15,38.436l-2.828,2.828c-0.391,0.391-0.391,1.023,0,1.414c0.195,0.195,0.451,0.293,0.707,0.293
			s0.512-0.098,0.707-0.293l2.828-2.828c0.391-0.391,0.391-1.023,0-1.414S12.541,38.045,12.15,38.436z"/>
		<path fill="currentColor" d="M41.85,38.436c-0.391-0.391-1.023-0.391-1.414,0s-0.391,1.023,0,1.414l2.828,2.828c0.195,0.195,0.451,0.293,0.707,0.293
			s0.512-0.098,0.707-0.293c0.391-0.391,0.391-1.023,0-1.414L41.85,38.436z"/>
		<path fill="currentColor" d="M12.15,11.564c0.195,0.195,0.451,0.293,0.707,0.293s0.512-0.098,0.707-0.293c0.391-0.391,0.391-1.023,0-1.414l-2.828-2.828
			c-0.391-0.391-1.023-0.391-1.414,0s-0.391,1.023,0,1.414L12.15,11.564z"/>
		<path fill="currentColor" d="M27,13c-6.617,0-12,5.383-12,12c0,0.553,0.447,1,1,1s1-0.447,1-1c0-5.514,4.486-10,10-10c0.553,0,1-0.447,1-1
			S27.553,13,27,13z"/>
	</symbol>
	<symbol id="star" viewBox="0 0 24 24">
		<path d="M0 0h24v24H0z" fill="none"/>
		<path fill="currentColor" d="M12 17.27L18.18 21l-1.64-7.03L22 9.24l-7.19-.61L12 2 9.19 8.63 2 9.24l5.46 4.73L5.82 21z"/>
		<path d="M0 0h24v24H0z" fill="none"/>
	</symbol>
	<symbol id="star-border" viewBox="0 0 24 24">
		<path fill="currentColor" d="M22 9.24l-7.19-.62L12 2 9.19 8.63 2 9.24l5.46 4.73L5.82 21 12 17.27 18.18 21l-1.63-7.03L22 9.24zM12 15.4l-3.76 2.27 1-4.28-3.32-2.88 4.38-.38L12 6.1l1.71 4.04 4.38.38-3.32 2.88 1 4.28L12 15.4z"/>
		<path d="M0 0h24v24H0z" fill="none"/>
	</symbol>
	<symbol id="star-half" viewBox="0 0 24 24">
		<defs>
			<path fill="currentColor" d="M0 0h24v24H0V0z" id="a"/>
		</defs>
		<clipPath id="b">
				<use overflow="visible" xlink:href="#a"/>
		</clipPath>
		<path fill="currentColor" clip-path="url(#b)" d="M22 9.24l-7.19-.62L12 2 9.19 8.63 2 9.24l5.46 4.73L5.82 21 12 17.27 18.18 21l-1.63-7.03L22 9.24zM12 15.4V6.1l1.71 4.04 4.38.38-3.32 2.88 1 4.28L12 15.4z"/>
	</symbol>
	<symbol id="lock" viewBox="0 0 24 24">
		<path d="M0 0h24v24H0z" fill="none"/>
		<path fill="currentColor" d="M18 8h-1V6c0-2.76-2.24-5-5-5S7 3.24 7 6v2H6c-1.1 0-2 .9-2 2v10c0 1.1.9 2 2 2h12c1.1 0 2-.9 2-2V10c0-1.1-.9-2-2-2zm-6 9c-1.1 0-2-.9-2-2s.9-2 2-2 2 .9 2 2-.9 2-2 2zm3.1-9H8.9V6c0-1.71 1.39-3.1 3.1-3.1 1.71 0 3.1 1.39 3.1 3.1v2z"/>
	</symbol>
	<symbol id="arrow-filter" viewBox="0 0 451.846 451.847">
		<path fill="currentColor" d="M345.441,248.292L151.154,442.573c-12.359,12.365-32.397,12.365-44.75,0c-12.354-12.354-12.354-32.391,0-44.744
			L278.318,225.92L106.409,54.017c-12.354-12.359-12.354-32.394,0-44.748c12.354-12.359,32.391-12.359,44.75,0l194.287,194.284
			c6.177,6.18,9.262,14.271,9.262,22.366C354.708,234.018,351.617,242.115,345.441,248.292z"/>
	</symbol>
	<symbol id="filters" viewBox="0 0 512 512">
		<path fill="currentColor"
			d="M496 384H160v-16c0-8.8-7.2-16-16-16h-32c-8.8 0-16 7.2-16 16v16H16c-8.8 0-16 7.2-16 16v32c0 8.8 7.2 16 16 16h80v16c0 8.8 7.2 16 16 16h32c8.8 0 16-7.2 16-16v-16h336c8.8 0 16-7.2 16-16v-32c0-8.8-7.2-16-16-16zm0-160h-80v-16c0-8.8-7.2-16-16-16h-32c-8.8 0-16 7.2-16 16v16H16c-8.8 0-16 7.2-16 16v32c0 8.8 7.2 16 16 16h336v16c0 8.8 7.2 16 16 16h32c8.8 0 16-7.2 16-16v-16h80c8.8 0 16-7.2 16-16v-32c0-8.8-7.2-16-16-16zm0-160H288V48c0-8.8-7.2-16-16-16h-32c-8.8 0-16 7.2-16 16v16H16C7.2 64 0 71.2 0 80v32c0 8.8 7.2 16 16 16h208v16c0 8.8 7.2 16 16 16h32c8.8 0 16-7.2 16-16v-16h208c8.8 0 16-7.2 16-16V80c0-8.8-7.2-16-16-16z"
			class=""></path>
	</symbol>
</svg>